<svg xmlns="http://www.w3.org/2000/svg" xmlns:xlink="http://www.w3.org/1999/xlink" width="40" height="40"><g stroke="none" stroke-width="1" fill="none" fill-rule="evenodd">\a       <path stroke="#ef9803" stroke-width="2" fill="#ef9803" stroke-linecap="round" stroke-linejoin="round" d="M22.667 29.867c0 .533-.534.933-1.067.933h-.4c-.533 0-1.067-.4-1.067-.933 0-.534.534-.934 1.067-.934h.4c.533 0 1.067.4 1.067.934z"/>\a       <path stroke="#333132" stroke-width="2" stroke-linecap="round" stroke-linejoin="round" d="M29.867 16.933c0 1.2-.667 4.534-.4 5.467.666.267 1.066.933 1.066 1.6 0 .933-.8 1.733-1.733 1.733-.4 4.667-5.467 8.534-8.933 8.534-3.334 0-8.534-3.867-8.934-8.534-.933 0-1.733-.8-1.733-1.733 0-.667.4-1.333 1.067-1.6.4-1.2-.134-4-.134-5.2"/>\a       <path stroke="#333132" stroke-width="2" stroke-linecap="round" stroke-linejoin="round" d="M10 17.2s12.8-1.6 13.733-4.533c0 0 3.734 4.933 6.134 4.133"/>\a       <path stroke="#333132" stroke-width="2" stroke-linecap="round" stroke-linejoin="round" d="M11.867 32.133c-6.534.8-8.534-1.066-6-15.2C8.4 2.4 22.533 6.267 22.533 6.267S30 5.067 33.2 14.933c2.933 9.2 3.6 18.267-5.333 17.467"/>\a       <path stroke="#ef9803" stroke-width="2" stroke-linecap="round" stroke-linejoin="round" d="M22.667 29.867c5.066 0 8.133-.4 9.2-3.067.8-1.867-.134-3.333-1.2-3.467"/>\a     </g></svg>