<svg width="27" height="26" viewBox="0 0 27 26" fill="none" xmlns="http://www.w3.org/2000/svg">
<path d="M0.371094 0H26.3065V14.0356L25.0228 16.0464L26.3065 17.836V26H0.371094V12.7688L1.17343 11.8438L0.371094 10.959V0Z" fill="#016FD0"/>
<path d="M5.40527 18.1174V14.0355H9.7166L10.1792 14.64L10.657 14.0355H26.3061V17.8359C26.3061 17.8359 25.8968 18.1134 25.4235 18.1174H16.7583L16.2368 17.474V18.1174H14.5278V17.019C14.5278 17.019 14.2944 17.1724 13.7897 17.1724H13.208V18.1174H10.6204L10.1585 17.5L9.68956 18.1174H5.40527Z" fill="white"/>
<path d="M0.371094 10.9589L1.34332 8.68671H3.02467L3.57642 9.95952V8.68671H5.6665L5.99495 9.60666L6.31338 8.68671H15.6957V9.1492C15.6957 9.1492 16.1889 8.68671 16.9995 8.68671L20.0437 8.69737L20.5859 9.95352V8.68671H22.335L22.8164 9.40827V8.68671H24.5815V12.7687H22.8164L22.355 12.0448V12.7687H19.7852L19.5268 12.1252H18.836L18.5817 12.7687H16.839C16.1415 12.7687 15.6957 12.3156 15.6957 12.3156V12.7687H13.068L12.5465 12.1252V12.7687H2.77559L2.51734 12.1252H1.82869L1.57227 12.7687H0.371094V10.9589Z" fill="white"/>
<path d="M1.68729 9.18988L0.375977 12.2463H1.22971L1.47166 11.6343H2.87826L3.11896 12.2463H3.99149L2.68143 9.18988H1.68729ZM2.17245 9.90121L2.6012 10.9707H1.74245L2.17245 9.90121Z" fill="#016FD0"/>
<path d="M4.08203 12.2459V9.18939L5.29523 9.19391L6.00087 11.1645L6.68962 9.18939H7.89312V12.2459H7.1309V9.99372L6.32293 12.2459H5.65447L4.84425 9.99372V12.2459H4.08203Z" fill="#016FD0"/>
<path d="M8.41406 12.2459V9.18939H10.9013V9.87308H9.1843V10.3959H10.8612V11.0394H9.1843V11.5823H10.9013V12.2459H8.41406Z" fill="#016FD0"/>
<path d="M11.3428 9.18988V12.2463H12.105V11.1605H12.4259L13.3398 12.2463H14.2713L13.2684 11.1203C13.68 11.0855 14.1046 10.7313 14.1046 10.1815C14.1046 9.53829 13.601 9.18988 13.039 9.18988H11.3428ZM12.105 9.87356H12.9763C13.1853 9.87356 13.3373 10.0375 13.3373 10.1953C13.3373 10.3984 13.1403 10.517 12.9876 10.517H12.105V9.87356Z" fill="#016FD0"/>
<path d="M15.1943 12.2459H14.416V9.18939H15.1943V12.2459Z" fill="#016FD0"/>
<path d="M17.0397 12.2459H16.8717C16.0589 12.2459 15.5654 11.6039 15.5654 10.7302C15.5654 9.8349 16.0534 9.18939 17.0798 9.18939H17.9223V9.91329H17.049C16.6324 9.91329 16.3377 10.2393 16.3377 10.7377C16.3377 11.3296 16.6746 11.5783 17.1601 11.5783H17.3607L17.0397 12.2459Z" fill="#016FD0"/>
<path d="M18.698 9.18988L17.3867 12.2463H18.2405L18.4824 11.6343H19.889L20.1297 12.2463H21.0022L19.6922 9.18988H18.698ZM19.1832 9.90121L19.6119 10.9707H18.7532L19.1832 9.90121Z" fill="#016FD0"/>
<path d="M21.0918 12.2459V9.18939H22.0609L23.2982 11.1097V9.18939H24.0604V12.2459H23.1227L21.854 10.2752V12.2459H21.0918Z" fill="#016FD0"/>
<path d="M5.92676 17.5947V14.5382H8.41399V15.2219H6.697V15.7447H8.37388V16.3882H6.697V16.9311H8.41399V17.5947H5.92676Z" fill="#016FD0"/>
<path d="M18.1143 17.5947V14.5382H20.6015V15.2219H18.8845V15.7447H20.5534V16.3882H18.8845V16.9311H20.6015V17.5947H18.1143Z" fill="#016FD0"/>
<path d="M8.51126 17.5947L9.72228 16.0853L8.48242 14.5382H9.44272L10.1811 15.4946L10.922 14.5382H11.8447L10.6211 16.0664L11.8344 17.5947H10.8743L10.1573 16.6533L9.45776 17.5947H8.51126Z" fill="#016FD0"/>
<path d="M11.9248 14.5387V17.5952H12.7071V16.63H13.5094C14.1883 16.63 14.7029 16.2689 14.7029 15.5667C14.7029 14.9851 14.2993 14.5387 13.6085 14.5387H11.9248ZM12.7071 15.2299H13.552C13.7714 15.2299 13.9281 15.3647 13.9281 15.5818C13.9281 15.7858 13.7722 15.9337 13.5495 15.9337H12.7071V15.2299Z" fill="#016FD0"/>
<path d="M15.0342 14.5382V17.5947H15.7964V16.5088H16.1173L17.0312 17.5947H17.9627L16.9598 16.4686C17.3714 16.4338 17.796 16.0796 17.796 15.5298C17.796 14.8866 17.2924 14.5382 16.7304 14.5382H15.0342ZM15.7964 15.2219H16.6677C16.8767 15.2219 17.0287 15.3858 17.0287 15.5436C17.0287 15.7467 16.8317 15.8654 16.679 15.8654H15.7964V15.2219Z" fill="#016FD0"/>
<path d="M20.9552 17.5947V16.9311H22.4806C22.7063 16.9311 22.8041 16.8088 22.8041 16.6747C22.8041 16.5462 22.7066 16.4163 22.4806 16.4163H21.7913C21.1921 16.4163 20.8584 16.0504 20.8584 15.5009C20.8584 15.0108 21.164 14.5382 22.0544 14.5382H23.5387L23.2178 15.2259H21.934C21.6886 15.2259 21.6131 15.355 21.6131 15.4783C21.6131 15.605 21.7064 15.7447 21.8939 15.7447H22.616C23.284 15.7447 23.5738 16.1245 23.5738 16.6219C23.5738 17.1567 23.2508 17.5947 22.5796 17.5947H20.9552Z" fill="#016FD0"/>
<path d="M23.7521 17.5947V16.9311H25.2775C25.5032 16.9311 25.6009 16.8088 25.6009 16.6747C25.6009 16.5462 25.5035 16.4163 25.2775 16.4163H24.5882C23.989 16.4163 23.6553 16.0504 23.6553 15.5009C23.6553 15.0108 23.9609 14.5382 24.8513 14.5382H26.3356L26.0146 15.2259H24.7309C24.4855 15.2259 24.41 15.355 24.41 15.4783C24.41 15.605 24.5033 15.7447 24.6908 15.7447H25.4129C26.0808 15.7447 26.3707 16.1245 26.3707 16.6219C26.3707 17.1567 26.0477 17.5947 25.3765 17.5947H23.7521Z" fill="#016FD0"/>
</svg>
