<?xml version="1.0" encoding="UTF-8"?>
<!-- Generator: Adobe Illustrator 22.0.1, SVG Export Plug-In . SVG Version: 6.00 Build 0)  -->
<svg version="1.1" id="Capa_1" xmlns="http://www.w3.org/2000/svg" xmlns:xlink="http://www.w3.org/1999/xlink" x="0px" y="0px" viewBox="0 0 159.7 159.7" style="enable-background:new 0 0 159.7 159.7;" xml:space="preserve">
<style type="text/css">
	.st0{fill:none;}
	.st1{clip-path:url(#SVGID_3_);}
	.st2{fill:#FFFFFF;}
	.st3{fill:#FCB618;}
	.st4{clip-path:url(#SVGID_5_);}
	.st5{fill:#E59785;}
	.st6{fill:#FFCAB3;}
	.st7{fill:#F2A691;}
	.st8{fill:#49A9EA;}
	.st9{fill:#3578BA;}
	.st10{opacity:0.5;}
	.st11{fill:#3288CE;}
	.st12{fill:#E7BA67;}
	.st13{fill:#325587;}
	.st14{opacity:0.4;}
	.st15{fill:#FEB242;}
	.st16{fill:#EA6565;}
	.st17{fill:#FFFBF8;}
	.st18{opacity:0.1;fill:#FFFFFF;enable-background:new    ;}
	.st19{opacity:0.4;fill:#353E45;enable-background:new    ;}
	.st20{fill:#DDDFDD;}
	.st21{fill:#EFF1EF;}
	.st22{fill:#9B5F4C;}
	.st23{clip-path:url(#SVGID_7_);}
	.st24{fill:#056800;}
	.st25{fill:#FFAE63;}
	.st26{fill:#007E8B;}
	.st27{fill:#D19F73;}
	.st28{fill:#FFC38C;}
	.st29{fill:#096131;}
	.st30{fill:#043B1D;}
	.st31{fill:#0E8D48;}
	.st32{fill:#58EB33;}
	.st33{fill:#FFDFC2;}
	.st34{fill:#001F30;}
</style>
<g>
	<defs>
		<circle id="SVGID_1_" cx="79.8" cy="79.8" r="75.7"/>
	</defs>
	<radialGradient id="SVGID_2_" cx="80.3274" cy="60.5288" r="86.1237" gradientUnits="userSpaceOnUse">
		<stop offset="0" style="stop-color:#275AA7"/>
		<stop offset="1" style="stop-color:#072E4D"/>
	</radialGradient>
	<use xlink:href="#SVGID_1_" style="overflow:visible;fill:url(#SVGID_2_);"/>
	<clipPath id="SVGID_3_">
		<use xlink:href="#SVGID_1_" style="overflow:visible;"/>
	</clipPath>
	<g id="XMLID_1_" class="st1">
		<g id="XMLID_2_">
			<path id="XMLID_3_" class="st2" d="M93.4,96.5H73.7c-0.6,0-1.1-0.5-1.1-1.1c0-0.6,0.5-1.1,1.1-1.1h19.6c0.7-0.2,5.9-1.5,6.2-7.5     c0.2-6-3.2-6.6-3.8-6.7c0,0-12.6,0-12.7,0c-5.1-0.8-6.1-5.4-6-7.8c0-6.3,5.3-9.1,8.1-9.7c0.1,0,0.2,0,0.2,0h17.8     c0.6,0,1.1,0.5,1.1,1.1c0,0.6-0.5,1.1-1.1,1.1H85.5c-0.9,0.2-6.3,1.8-6.3,7.6c0,0,0,0.1,0,0.1c0,0.2-0.2,4.7,4,5.5     c0,0,12.5,0,12.5,0c0.1,0,6.2,0.5,5.9,9c-0.3,6.6-5.4,9.2-8.1,9.7C93.6,96.5,93.5,96.5,93.4,96.5z"/>
		</g>
		<g id="XMLID_4_">
			<path id="XMLID_5_" class="st2" d="M130.6,96.6h-18.2c0,0-0.1,0-0.1,0c-2.4-0.3-7-1.9-7.1-6.4c-0.1-4.8,3.1-19.2,3.2-19.8     c0-0.1,0-0.1,0-0.1c0.1-0.3,2.8-7.3,8.7-7.3h13.1c0.1,0,0.2,0,0.3,0c0.2,0.1,5.6,1.7,5.6,6.3c0,3.9-1.1,10.5-1.2,10.7     c-0.1,0.5-0.6,0.9-1.1,0.9L108.6,81c-0.6,3.6-1.2,7.2-1.1,9.1c0.1,3.5,4.4,4.2,5,4.2h18.1c0.6,0,1.1,0.5,1.1,1.1     S131.2,96.6,130.6,96.6z M110.6,70.9c-0.1,0.6-0.9,4-1.6,7.9l24-0.2c0.3-2,1-6.6,1-9.4c0-2.6-3.1-3.9-3.8-4.1h-12.9     C113.1,65.1,110.9,70.2,110.6,70.9z"/>
		</g>
		<g id="XMLID_8_">
			<path id="XMLID_9_" class="st2" d="M39.6,111.3c-0.1,0-0.1,0-0.2,0c-0.6-0.1-1-0.7-0.9-1.3c0,0,1.8-9.9,3.6-19.7     c0.9-4.9,1.8-9.9,2.5-13.6c0.3-1.9,0.6-3.4,0.8-4.5c0.2-0.9,0.3-1.5,0.4-1.9l0,0c1.3-3.5,5.2-7.2,8.1-7.6c0.1,0,0.2,0,0.3,0     c0.7,0,7.8,0,12.5,0c0,0,0,0,0,0c1.1,0,6.9,2.2,6.2,6.8c0,0,0,0.1,0,0.1l-3.1,19.1c0,0,0,0.1,0,0.1c-0.1,0.2-1.7,5.9-7.2,7.5     c-0.1,0-0.2,0-0.3,0l-11.5,0.3c0,0-0.1,0-0.1,0c-0.2,0-3.8-0.4-6.7-4.1c-1.2,6.8-2.5,13.6-3.2,17.8     C40.6,110.9,40.1,111.3,39.6,111.3z M44.5,89.3c2.3,4.3,5.8,5,6.3,5.1l11.3-0.3c3.9-1.3,5.3-5.4,5.5-5.9l3.1-18.9     c0.3-2.1-2.9-4.4-4.2-4.4c-0.8,0-3.4,0-6.1,0c-1.6,0-3.2,0-4.4,0c-0.8,0-1.4,0-1.8,0c-1.9,0.3-5.3,3.3-6.3,6.1     C47.7,71.9,46.1,80.2,44.5,89.3z"/>
		</g>
		<path id="XMLID_12_" class="st3" d="M24.4,57.9c0,1.7-1.4,3.1-3.1,3.1c-1.7,0-3.1-1.4-3.1-3.1c0-1.7,1.4-3.1,3.1-3.1    C23,54.8,24.4,56.2,24.4,57.9z"/>
		<circle id="XMLID_13_" class="st3" cx="14.2" cy="47.3" r="3.1"/>
		<path id="XMLID_15_" class="st3" d="M10.3,57.9c0,1.7-1.4,3.1-3.1,3.1c-1.7,0-3.1-1.4-3.1-3.1c0-1.7,1.4-3.1,3.1-3.1    C8.9,54.8,10.3,56.2,10.3,57.9z"/>
		<circle id="XMLID_16_" class="st3" cx="20.9" cy="100.5" r="3.1"/>
		<circle id="XMLID_17_" class="st3" cx="14.2" cy="90.5" r="3.1"/>
		<circle id="XMLID_21_" class="st3" cx="0.4" cy="90.5" r="2.6"/>
		<path id="XMLID_22_" class="st3" d="M9.9,100.5c0,1.4-1.2,2.6-2.6,2.6c-1.4,0-2.6-1.2-2.6-2.6s1.2-2.6,2.6-2.6    C8.8,97.9,9.9,99.1,9.9,100.5z"/>
		<circle id="XMLID_23_" class="st3" cx="0.3" cy="111.4" r="2.6"/>
		<circle id="XMLID_49_" class="st3" cx="0.2" cy="47.4" r="2.6"/>
		<circle id="XMLID_51_" class="st3" cx="0.2" cy="68.9" r="3.1"/>
		<circle id="XMLID_52_" class="st3" cx="14.2" cy="111.4" r="3.1"/>
		<rect id="XMLID_70_" x="-5.2" y="78.5" class="st3" width="46.2" height="1.9"/>
		<rect id="XMLID_66_" x="2.5" y="67.9" class="st3" width="14.5" height="1.9"/>
		<polygon id="XMLID_69_" class="st3" points="23.3,80.3 15.3,67.9 17.5,67.9 25.5,80.3   "/>
		<rect id="XMLID_68_" x="16.7" y="89.6" class="st3" width="7.4" height="1.9"/>
		<polygon id="XMLID_67_" class="st3" points="22.3,91.5 28.9,80.3 30.9,80.3 24.2,91.5   "/>
	</g>
</g>
</svg>