<?xml version="1.0" encoding="UTF-8"?>
<!DOCTYPE svg PUBLIC "-//W3C//DTD SVG 1.0//EN" "http://www.w3.org/TR/2001/REC-SVG-20010904/DTD/svg10.dtd">
<!-- Creator: CorelDRAW -->
<svg xmlns="http://www.w3.org/2000/svg" xml:space="preserve" width="3875px" height="1817px" version="1.0" shape-rendering="geometricPrecision" text-rendering="geometricPrecision" image-rendering="optimizeQuality" fill-rule="evenodd" clip-rule="evenodd"
viewBox="0 0 3957.68 1855.75"
 xmlns:xlink="http://www.w3.org/1999/xlink"
 xmlns:xodm="http://www.corel.com/coreldraw/odm/2003">
 <g id="Capa_x0020_1">
  <metadata id="CorelCorpID_0Corel-Layer"/>
  <g id="_105553298945760">
   <path fill="#ED1C27" fill-rule="nonzero" d="M1732.72 746.66c-35.71,101.64 -158.19,385.38 -232.36,386.11 -74.26,0.73 -200.86,-280.58 -238.51,-381.48 -22.63,-60.54 -91.72,-16.57 -69.13,43.94 40.5,108.57 192.73,435.99 309.3,431.94 116.58,1.75 262.29,-328.61 300.71,-437.94 21.35,-60.92 -48.47,-103.56 -70.01,-42.57l0 0zm204.78 23.71c0,-65.1 -81.79,-64.75 -81.79,-1.05l0 410.59c0,61.55 81.82,63.85 81.82,2.29l-0.03 -411.83 0 0zm-1335.03 186.59c-0.38,-3.83 -1.02,-7.47 -1.6,-11.17 -4.37,-23.9 -11.84,-45.54 -22.11,-64.97 -0.23,-0.45 -0.48,-0.8 -0.71,-1.25 -2.71,-5 -5.65,-9.79 -8.71,-14.52 -2.04,-3.15 -4.11,-6.19 -6.19,-9.09 -1.43,-1.98 -2.9,-3.89 -4.37,-5.84 -3.03,-3.93 -6,-7.63 -8.93,-11.04 -3.26,-3.74 -6.55,-7.47 -10.03,-10.98 -0.73,-0.77 -1.46,-1.53 -2.2,-2.23 -132.69,-131.13 -421.85,-117.73 -504.47,-82.91 -55.94,23.48 -36.6,92.8 24.6,65.74 99.54,-25.18 195.6,-24.7 293.85,0 80.23,20.13 164.32,90.34 164.32,165.75 -5.74,187.77 -254.15,195.21 -354.87,170.8l0 -233.6c0,-55.79 -71.77,-56.23 -71.77,-0.45l0 234.88c0,47.16 24.32,64.27 56.52,71.61 75.79,17.39 394.02,35.9 450.64,-190.23 1.11,-4.37 1.91,-8.59 2.74,-12.83 0.77,-3.83 1.6,-7.66 2.2,-11.65 2.14,-15.32 2.52,-29.9 1.38,-43.62 -0.13,-0.8 -0.2,-1.63 -0.29,-2.4l0 0zm337.92 -237.3c-126.21,-3.6 -289.06,324.36 -332.24,433.12 -24.22,60.63 50.71,104.29 74.96,43.62 40.08,-100.97 177.05,-382.79 257.38,-382.31 80.26,0.45 212.63,283.77 251.75,385.18 23.46,60.93 98.93,18.16 75.41,-42.79 -41.96,-109.21 -201.3,-438.99 -327.26,-436.82l0 0z"/>
   <path fill="#ED1C27" fill-rule="nonzero" d="M3830.33 527.07c-63.63,-53.84 -172.01,-134.64 -204.01,-158.35 4.21,-49.27 12.95,-102.57 24.31,-147.95 13.12,-51.82 24.45,-96.6 0.07,-127.9 -16.44,-21.13 -45.22,-30.96 -90.48,-30.96l-169.04 0c-38.42,0 -66.34,11.11 -82.97,33 -12.48,16.4 -17.52,38.29 -14.9,63.15 -181.59,-98.96 -338.82,-157.55 -425.88,-158.06l-0.22 0c-93.57,0.54 -267.97,68.07 -466.53,180.56 -28.08,15.99 -199.74,117.28 -282.94,181.33 -1.37,0.99 -137.86,99.73 -213.43,163.17 -36.32,30.57 -62.87,58.88 -82.27,85.01l0.16 0.13c-2.97,3.61 -4.98,8.04 -4.98,13.05 0,11.52 9.35,20.87 20.84,20.87 6.45,0 12,-3.12 15.83,-7.72l0.19 0.19c0,0 5.87,-8.14 9.96,-13.62 17.45,-21.58 39.47,-43.85 66.57,-66.67 74.35,-62.45 209.69,-160.36 211.55,-161.73 81.85,-63 250.96,-162.76 278.66,-178.49 192.65,-109.17 359.56,-174.69 446.49,-175.26 86.86,0.57 253.7,66.09 446.36,175.26 7.08,3.99 15.79,3.45 22.27,-1.4 6.51,-4.85 9.51,-13.09 7.66,-20.97 -1.12,-4.79 -2.55,-9.73 -4.02,-14.68 -0.8,-2.74 -1.6,-5.42 -2.36,-8.27 -3.54,-12.73 -7.79,-36.31 3.48,-51.15 10.59,-13.95 33.31,-16.88 50.48,-16.88l169.04 0c30.35,0 50.49,5.26 58.24,15.22 12.16,15.57 2.65,53.1 -7.4,92.86 -12.8,51.07 -22.4,111.6 -26.33,166.14 -0.51,6.99 2.62,13.76 8.27,17.9 1.37,1.03 137.09,100.94 211,163.4 89.84,75.73 127.94,146.35 107.23,198.84 -22.91,58.21 -118.39,93.19 -237.49,87.28 -14.08,-0.67 -27.96,-1.37 -41.65,-2.07l-25.75 -1.31c-5.59,-0.25 -11.2,1.82 -15.26,5.78 -4.05,3.99 -6.28,9.44 -6.16,15.12 1.66,64.95 20.81,195.98 131.26,344.6 98.96,118.3 113.58,255.2 40.11,375.64 -87.79,143.93 -307.7,259.58 -601.17,193.55 -3.63,-0.86 -7.43,-0.64 -10.94,0.54 -80.07,26.68 -210.11,38.71 -276.88,38.71 -66.79,0 -196.77,-12.03 -276.68,-38.71 -2.1,-0.7 -4.27,-1.05 -6.48,-1.05 -1.5,0 -3,0.16 -4.5,0.48 -293.65,66.12 -513.63,-49.63 -601.42,-193.58 -47.74,-78.32 -57.83,-163.56 -31.91,-246.37 0,0 1.24,-4.47 0.86,-7.98 -0.03,-0.28 0.03,-0.86 -0.1,-1.11 -0.89,-8.59 -7.24,-15.39 -16.14,-17.2 -8.68,-1.73 -17.05,2.1 -21.32,9.31 -0.1,0.07 -0.22,0.42 -0.29,0.55 -2.36,3.73 -4.37,12.89 -4.37,12.89 -25.75,91.24 -13.5,185.99 38.42,271.13 76.75,125.89 244.87,232.26 470.9,232.23 53.24,0 109.66,-5.91 168.82,-18.83 89.01,28.4 220.77,39.06 284.22,39.06 63.44,0 195.2,-10.66 284.34,-39.06 310.44,67.81 544.65,-57.86 639.49,-213.3 81.96,-134.33 65.62,-292.48 -42.92,-422.18 -91.65,-123.37 -115.97,-233.25 -121.3,-298.32l3.1 0.16c13.75,0.7 27.67,1.44 41.74,2.08 138.66,6.89 247.64,-37.4 277.45,-113.1 19.53,-49.56 14.77,-132.31 -118.88,-244.96l0 0z"/>
   <g>
    <path fill="#373535" fill-rule="nonzero" d="M2130.83 1057.42c0,9.35 1.43,18 2.87,25.95 11.52,43.94 49.72,74.2 95.1,74.2 67.02,0 105.92,-54.77 105.92,-134.74 0,-69.89 -36.77,-129.69 -103.75,-129.69 -43.24,0 -83.58,30.99 -95.83,78.54 -2.14,7.91 -4.31,17.29 -4.31,25.94l0 59.8 0 0zm-62.68 -92.96c0,-44.64 -1.47,-80.67 -2.9,-113.83l56.93 0 2.87 59.8 1.44 0c25.94,-42.5 67.01,-67.71 123.91,-67.71 84.32,0 147.73,71.32 147.73,177.24 0,125.35 -76.4,187.33 -158.51,187.33 -46.12,0 -86.46,-20.2 -107.36,-54.77l-1.43 0 0 189.47 -62.68 0 0 -377.53z"/>
    <polygon fill="#373535" fill-rule="nonzero" points="2478.04,687.81 2541.45,687.81 2541.45,1199.34 2478.04,1199.34 "/>
    <path fill="#373535" fill-rule="nonzero" d="M2831.79 1021.39c-69.19,-1.43 -147.69,10.82 -147.69,78.54 0,41.07 27.38,60.51 59.8,60.51 45.38,0 74.2,-28.82 84.28,-58.37 2.17,-6.48 3.61,-13.69 3.61,-20.17l0 -60.51zm9.35 177.95l-5.01 -43.95 -2.17 0c-19.47,27.39 -56.93,51.89 -106.62,51.89 -70.62,0 -106.65,-49.71 -106.65,-100.17 0,-84.28 74.93,-130.39 209.66,-129.66l0 -7.21c0,-28.82 -7.94,-80.68 -79.24,-80.68 -32.42,0 -66.28,10.05 -90.79,25.92l-14.39 -41.78c28.79,-18.73 70.59,-30.98 114.53,-30.98 106.62,0 132.57,72.76 132.57,142.64l0 130.43c0,30.26 1.44,59.77 5.78,83.55l-57.67 0 0 0z"/>
    <path fill="#373535" fill-rule="nonzero" d="M3068.8 750.49l0 100.14 90.79 0 0 48.28 -90.79 0 0 188.03c0,43.24 12.22,67.75 47.55,67.75 16.56,0 28.82,-2.17 36.73,-4.34l2.91 47.55c-12.26,5.05 -31.73,8.65 -56.2,8.65 -29.55,0 -53.33,-9.35 -68.46,-26.65 -17.99,-18.76 -24.5,-49.72 -24.5,-90.79l0 -190.2 -54.03 0 0 -48.28 54.03 0 0 -83.58 61.97 -16.56 0 0z"/>
    <path fill="#373535" fill-rule="nonzero" d="M3414.61 1021.39c-69.16,-1.43 -147.69,10.82 -147.69,78.54 0,41.07 27.38,60.51 59.8,60.51 45.38,0 74.2,-28.82 84.28,-58.37 2.17,-6.48 3.61,-13.69 3.61,-20.17l0 -60.51zm9.38 177.95l-5.04 -43.95 -2.17 0c-19.47,27.39 -56.93,51.89 -106.62,51.89 -70.63,0 -106.62,-49.71 -106.62,-100.17 0,-84.28 74.9,-130.39 209.63,-129.66l0 -7.21c0,-28.82 -7.94,-80.68 -79.24,-80.68 -32.42,0 -66.28,10.05 -90.79,25.92l-14.42 -41.78c28.81,-18.73 70.62,-30.98 114.56,-30.98 106.62,0 132.57,72.76 132.57,142.64l0 130.43c0,30.26 1.43,59.77 5.77,83.55l-57.63 0 0 0z"/>
   </g>
  </g>
 </g>
</svg>
