<svg width="50" height="16" viewBox="0 0 50 16" fill="none" xmlns="http://www.w3.org/2000/svg">
<g clip-path="url(#clip0_105_631)">
<path d="M21.394 15.7692H17.3945L19.8961 0.280762H23.8953L21.394 15.7692Z" fill="#002896"/>
<path d="M35.8927 0.659404C35.1038 0.346017 33.8526 0 32.3055 0C28.356 0 25.5747 2.10895 25.5577 5.12412C25.5248 7.3487 27.5489 8.58429 29.0628 9.32603C30.6101 10.084 31.1361 10.5787 31.1361 11.2543C31.1204 12.2919 29.8858 12.7702 28.7343 12.7702C27.1376 12.7702 26.282 12.5236 24.9818 11.9463L24.4552 11.6989L23.8955 15.1757C24.8335 15.6036 26.5617 15.9834 28.356 16C32.5524 16 35.2845 13.9237 35.3169 10.7105C35.3328 8.94739 34.264 7.59639 31.9598 6.49242C30.5609 5.78374 29.7043 5.30589 29.7043 4.58078C29.7207 3.9216 30.4288 3.24643 32.0079 3.24643C33.3081 3.21336 34.2634 3.52631 34.9871 3.83947L35.3488 4.00394L35.8927 0.659404Z" fill="#002896"/>
<path d="M41.2083 10.2822C41.5377 9.3924 42.805 5.94865 42.805 5.94865C42.7884 5.98172 43.1338 5.04244 43.3312 4.46582L43.6107 5.80039C43.6107 5.80039 44.3681 9.50781 44.5326 10.2822C43.9075 10.2822 41.9982 10.2822 41.2083 10.2822ZM46.1451 0.280762H43.0515C42.0975 0.280762 41.3728 0.560641 40.9612 1.56584L35.0205 15.769H39.217C39.217 15.769 39.9079 13.8573 40.0564 13.4456C40.5167 13.4456 44.5991 13.4456 45.1913 13.4456C45.3061 13.9894 45.6685 15.769 45.6685 15.769H49.3716L46.1451 0.280762Z" fill="#002896"/>
<path d="M14.0539 0.280762L10.1372 10.8424L9.70917 8.70036C8.98504 6.22875 6.71402 3.5434 4.17969 2.20816L7.7673 15.7528H11.9966L18.283 0.280762H14.0539Z" fill="#002896"/>
<path d="M6.50052 0.280762H0.0658295L0 0.59371C5.01946 1.87901 8.34376 4.97718 9.70956 8.70102L8.31073 1.58271C8.08044 0.593491 7.37271 0.313392 6.50052 0.280762Z" fill="#002896"/>
</g>
<defs>
<clipPath id="clip0_105_631">
<rect width="49.3714" height="16" fill="white"/>
</clipPath>
</defs>
</svg>
