<svg width="40" height="40" viewBox="0 0 40 40" fill="none" xmlns="http://www.w3.org/2000/svg">
<rect width="40" height="40" rx="6" fill="#FBEA24"/>
<path fill-rule="evenodd" clip-rule="evenodd" d="M25.3217 29.3352L25.3373 32.5202C25.3607 32.8232 25.3997 32.9941 25.462 33.1262C25.8909 34.0661 27.388 33.9807 28.2612 33.4136L27.8792 32.6135C27.5907 32.7222 27.2554 32.9553 26.8499 32.831C26.4913 32.7222 26.5147 32.3027 26.5147 31.8832V29.3119L28.924 29.3197L30.8655 33.7243C30.9045 33.9185 30.4757 34.6798 30.3821 34.8041C29.7115 35.7441 29.0878 35.3479 28.5497 35.2314L28.2846 36.1869C29.3061 36.5753 30.3743 36.4277 30.9747 35.783C31.5049 35.2081 31.809 34.4002 32.1443 33.4991L34 28.3797H32.768L31.4503 32.3027C31.3178 32.1551 30.3119 29.6382 30.1248 29.2109C29.8753 28.6283 29.5088 28.3797 28.7291 28.3719C27.9961 28.3642 27.2632 28.3719 26.5147 28.3719V26.7872C26.2574 26.8493 25.5166 27.0668 25.3295 27.1678V28.3486L24.3704 28.3642L24.3782 29.3119L25.3217 29.3352ZM22.9046 3.46655C29.002 3.46655 33.0176 8.35285 31.8636 14.3966C30.7096 20.4404 24.8227 25.3267 18.7174 25.3267C12.6122 25.3267 8.59665 20.4404 9.75064 14.3966C10.9124 8.36062 16.7915 3.46655 22.9046 3.46655ZM25.8129 4.88816C29.5946 6.20879 31.7856 9.96867 30.9357 14.3966C29.9454 19.5626 25.1813 23.8197 20.004 24.3557C19.5907 24.3402 19.5829 24.1149 19.5751 23.7653C19.5985 23.0506 19.6219 22.3281 19.6375 21.6135C19.6453 21.5047 19.6063 21.4736 19.5595 21.4581C19.0293 21.4037 18.5069 21.2872 17.9845 21.124C17.4231 20.9065 16.8617 20.588 16.3003 20.2229C16.043 20.0986 16.0742 19.5005 16.082 19.2674C16.1288 18.8401 16.4407 17.8613 16.9475 17.8147C17.5479 17.7836 17.8364 18.1022 18.4367 18.3896C19.4894 18.8868 20.9552 19.1742 22.0391 18.6692C22.5615 18.3507 22.6862 17.9235 22.4445 17.3797C22.0157 16.4941 19.9806 15.7639 19.0605 15.3211C16.8461 14.3811 15.6142 12.4779 16.004 10.2095C16.2925 8.5393 17.8675 7.26528 19.5128 7.03223V6.24763C17.4777 6.83802 15.9338 8.00328 14.5459 9.35497C12.5343 11.3126 11.3491 13.7907 11.2555 16.9524C11.4114 20.8211 13.4309 22.5379 15.544 23.8197C11.9183 22.4214 9.84421 18.7314 10.6785 14.3966C11.6921 9.09085 16.6902 4.74833 22.0313 4.39876C22.2418 4.52305 22.2574 4.54636 22.3665 4.82602C22.3198 5.4941 22.2808 6.16218 22.234 6.83025C23.2866 7.04 24.2847 7.34297 25.0878 8.01881C25.1112 9.55695 23.9572 10.194 23.5205 9.96091C23.5439 9.89099 21.7818 9.40158 21.4153 9.31613C20.9708 9.24622 20.5342 9.26952 20.0898 9.4715C19.5751 9.71232 19.3256 10.0774 19.5751 10.6523C19.7857 11.0796 20.1365 11.3514 20.5264 11.5923C21.6336 12.1904 22.7408 12.7886 23.8558 13.3868C24.8149 13.9228 25.4932 14.6142 25.9377 15.4609C26.2574 16.2921 26.3275 17.1389 26.1404 18.0012C25.9221 18.7003 25.657 19.314 25.2515 19.6947C24.9162 20.0753 24.542 20.3783 24.1443 20.588C23.5829 20.8832 23.0137 21.1474 22.4289 21.2406C22.4133 21.5979 22.3977 21.9475 22.3743 22.3048C22.4211 22.3281 22.4679 22.3204 22.5225 22.3048C23.7778 21.9009 24.8773 21.194 25.9533 20.4171C27.349 19.1897 28.6511 17.9079 29.3295 16.2533C29.7973 15.3288 30.156 14.3034 30.3275 13.0993C30.7018 9.72785 29.4698 6.55059 25.8129 4.88816ZM11.7779 28.3642L11.7935 27.1834C11.7779 26.7639 12.16 26.1191 12.6746 25.8783C13.1502 25.6608 14.0625 25.6452 14.5147 25.9404L14.2964 26.8726C12.9475 26.5774 12.9553 26.826 12.9553 28.3642H14.4212L14.0391 29.2964L12.9475 29.3041V33.701C12.7292 33.7243 11.9651 33.7399 11.7701 33.6855V29.3119L11.1775 29.2964L10.8111 28.3719L11.7779 28.3642ZM19.7077 31.1763C19.7779 34.3147 23.2086 34.1438 24.1287 33.3126C24.0975 33.1805 23.8636 32.5902 23.7856 32.5125C23.1541 32.7688 22.5381 33.064 21.774 32.6834C20.5888 32.1007 20.6745 29.8945 21.8753 29.3507C22.3432 29.141 22.9825 29.1565 23.466 29.3663C23.6375 29.444 23.7622 29.5294 23.9026 29.5916V28.5739C23.2008 28.2942 22.6862 28.1078 21.7973 28.3098C20.4562 28.6205 19.6765 29.8402 19.7077 31.1763ZM7.20875 30.4772C7.29452 29.7625 7.56742 29.1721 8.33155 29.1565C9.07228 29.141 9.42316 29.7547 9.45435 30.4849L7.20875 30.4772ZM10.507 33.3126L10.1717 32.5358C9.8598 32.6212 9.66487 32.7766 9.25942 32.8465C8.20679 33.0252 7.24773 32.5358 7.22434 31.3394H10.6551C10.6551 30.1431 10.4446 28.7681 9.10347 28.3486C8.48749 28.1467 7.73116 28.2243 7.21654 28.5273C5.36081 29.6382 5.45437 33.8642 8.71361 33.8253C9.34519 33.8176 10.1405 33.6467 10.507 33.3126ZM15.6453 30.4927C15.7077 29.7702 16.0352 29.1721 16.7837 29.1643C17.5011 29.1643 17.8675 29.7858 17.8753 30.4927H15.6453ZM14.4524 31.2618C14.5771 33.2427 16.121 34.1749 18.0079 33.7321C18.4289 33.6311 18.6239 33.4757 18.9358 33.367L18.6005 32.5358C18.1249 32.6834 17.5089 33.0951 16.6434 32.7921C16.0742 32.5902 15.6765 32.093 15.6531 31.3472L19.0917 31.3394C19.0917 29.778 18.6239 28.2476 16.8149 28.2399C15.0528 28.2166 14.3588 29.7003 14.4524 31.2618Z" fill="#010203"/>
</svg>
