<svg width="78" height="20" viewBox="0 0 78 20" fill="none" xmlns="http://www.w3.org/2000/svg">
<g clip-path="url(#clip0_48_6923)">
<path d="M14.9033 20C20.4146 20.0262 25.4449 15.542 25.4449 10.0869C25.4449 4.12143 20.4146 -0.00198341 14.9033 7.15737e-07H10.1602C4.58286 -0.00198341 -0.0078125 4.12266 -0.0078125 10.0869C-0.0078125 15.5432 4.58286 20.0262 10.1602 20H14.9033Z" fill="#0079BE"/>
<path d="M10.1827 0.826599C5.08629 0.828186 0.956523 4.92541 0.955322 9.98219C0.956523 15.0381 5.08625 19.1349 10.1827 19.1365C15.2803 19.1349 19.4109 15.0381 19.4116 9.98219C19.4108 4.92541 15.2803 0.828186 10.1827 0.826599ZM4.33371 9.98219C4.33851 7.51116 5.89448 5.40402 8.08859 4.56668V15.3964C5.89448 14.5596 4.33847 12.4536 4.33371 9.98219ZM12.276 15.3988V4.56632C14.4709 5.40164 16.0292 7.50997 16.0332 9.98219C16.0292 12.4552 14.4709 14.5619 12.276 15.3988Z" fill="white"/>
<path d="M28.6769 4.30284C28.6769 3.35676 28.1796 3.41907 27.7027 3.40879V3.13538C28.116 3.15561 28.5397 3.15561 28.9538 3.15561C29.3991 3.15561 30.0037 3.13538 30.7886 3.13538C33.534 3.13538 35.0292 4.95442 35.0292 6.81708C35.0292 7.85875 34.4147 10.4774 30.661 10.4774C30.1204 10.4774 29.6215 10.4567 29.1234 10.4567C28.6465 10.4567 28.1796 10.4671 27.7026 10.4774V10.2044C28.3384 10.1409 28.6465 10.1199 28.6769 9.40438L28.6769 4.30284ZM29.7164 9.23653C29.7164 10.0464 30.3001 10.1409 30.8194 10.1409C33.1104 10.1409 33.8626 8.42621 33.8626 6.85875C33.8626 4.89248 32.5899 3.47264 30.5438 3.47264C30.1085 3.47264 29.9085 3.50359 29.7164 3.51474L29.7164 9.23653Z" fill="#211E1F"/>
<path d="M35.4014 10.2044H35.6022C35.8987 10.2044 36.1112 10.2044 36.1112 9.85634V7.00638C36.1112 6.54412 35.9523 6.4798 35.5598 6.27067V6.10202C36.058 5.95361 36.6525 5.75519 36.6941 5.72345C36.7689 5.68138 36.8321 5.67027 36.8854 5.67027C36.9378 5.67027 36.9598 5.73377 36.9598 5.81829V9.85634C36.9598 10.2044 37.193 10.2044 37.4899 10.2044H37.6699V10.4778C37.309 10.4778 36.9378 10.4568 36.5569 10.4568C36.1752 10.4568 35.7931 10.4671 35.4014 10.4778V10.2044H35.4014ZM36.5356 4.05079C36.2596 4.05079 36.0164 3.79845 36.0164 3.525C36.0164 3.2615 36.2708 3.01904 36.5356 3.01904C36.8105 3.01904 37.0554 3.24091 37.0554 3.525C37.0554 3.80912 36.8213 4.05079 36.5356 4.05079Z" fill="#211E1F"/>
<path d="M38.6774 7.0691C38.6774 6.68021 38.5601 6.57545 38.0628 6.37545V6.17588C38.5185 6.02866 38.9527 5.89176 39.4619 5.67033C39.4936 5.67033 39.5247 5.69176 39.5247 5.77549V6.45957C40.1301 6.02866 40.6498 5.67029 41.3612 5.67029C42.2614 5.67029 42.5794 6.32263 42.5794 7.14287V9.8564C42.5794 10.2044 42.8127 10.2044 43.1099 10.2044H43.3008V10.4778C42.9287 10.4778 42.5578 10.4568 42.177 10.4568C41.7948 10.4568 41.4127 10.4672 41.0315 10.4778V10.2044H41.2219C41.5195 10.2044 41.7305 10.2044 41.7305 9.8564V7.13295C41.7305 6.53255 41.3612 6.2385 40.7558 6.2385C40.4169 6.2385 39.876 6.51195 39.5247 6.74366V9.85632C39.5247 10.2044 39.7591 10.2044 40.0565 10.2044H40.2469V10.4778C39.876 10.4778 39.5043 10.4568 39.1226 10.4568C38.7413 10.4568 38.3589 10.4671 37.9775 10.4778V10.2044H38.1688C38.4657 10.2044 38.6773 10.2044 38.6773 9.85632V7.0691H38.6774Z" fill="#211E1F"/>
<path d="M44.107 7.57459C44.0849 7.66947 44.0849 7.82697 44.107 8.18491C44.1694 9.18372 44.8179 10.004 45.6649 10.004C46.2486 10.004 46.7055 9.68852 47.0973 9.29963L47.2453 9.44725C46.7572 10.0885 46.153 10.6353 45.284 10.6353C43.5976 10.6353 43.2583 9.01507 43.2583 8.34249C43.2583 6.28054 44.6578 5.67023 45.3996 5.67023C46.259 5.67023 47.1821 6.20638 47.1921 7.32142C47.1921 7.38531 47.1921 7.44761 47.1821 7.5115L47.086 7.57459H44.107ZM45.9842 7.23773C46.2486 7.23773 46.2799 7.10082 46.2799 6.97503C46.2799 6.43848 45.9514 6.00713 45.3573 6.00713C44.7111 6.00713 44.2658 6.47975 44.1386 7.23773H45.9842Z" fill="#211E1F"/>
<path d="M47.436 10.2044H47.7225C48.0185 10.2044 48.2306 10.2044 48.2306 9.85634V6.90118C48.2306 6.57539 47.8389 6.51189 47.6793 6.42777V6.27062C48.4535 5.94404 48.8779 5.67023 48.9744 5.67023C49.0372 5.67023 49.0684 5.70197 49.0684 5.80753V6.75396H49.0908C49.3552 6.34404 49.8014 5.67023 50.4475 5.67023C50.7128 5.67023 51.0517 5.8488 51.0517 6.22777C51.0517 6.51189 50.8508 6.76507 50.554 6.76507C50.2239 6.76507 50.2239 6.51189 49.8534 6.51189C49.673 6.51189 49.0797 6.75396 49.0797 7.38531V9.85634C49.0797 10.2044 49.2913 10.2044 49.5885 10.2044H50.1819V10.4778C49.5985 10.4671 49.1548 10.4568 48.6979 10.4568C48.2635 10.4568 47.8177 10.4671 47.4361 10.4778L47.436 10.2044Z" fill="#211E1F"/>
<path d="M51.5187 9.01509C51.6567 9.70953 52.0804 10.2989 52.855 10.2989C53.4791 10.2989 53.7127 9.92029 53.7127 9.55203C53.7127 8.31076 51.4018 8.71037 51.4018 7.01711C51.4018 6.42783 51.8795 5.67029 53.0454 5.67029C53.3843 5.67029 53.8399 5.76553 54.2532 5.97624L54.3285 7.04811H54.0841C53.9784 6.38616 53.6076 6.00723 52.9282 6.00723C52.5041 6.00723 52.1016 6.24934 52.1016 6.70128C52.1016 7.93303 54.5614 7.55326 54.5614 9.20445C54.5614 9.8985 53.9992 10.6354 52.7373 10.6354C52.3132 10.6354 51.8151 10.4882 51.4442 10.2783L51.3274 9.06838L51.5187 9.01509Z" fill="#211E1F"/>
<path d="M64.136 5.03929H63.8715C63.6699 3.80913 62.7897 3.31429 61.6026 3.31429C60.3824 3.31429 58.6115 4.12378 58.6115 6.64802C58.6115 8.77421 60.1395 10.2988 61.7719 10.2988C62.8213 10.2988 63.6915 9.5837 63.9035 8.47897L64.1468 8.54167L63.9035 10.0773C63.4582 10.3516 62.26 10.6353 61.5594 10.6353C59.0788 10.6353 57.51 9.04687 57.51 6.68016C57.51 4.52382 59.4501 2.97699 61.5281 2.97699C62.3868 2.97699 63.2138 3.25159 64.0304 3.53572L64.136 5.03929Z" fill="#211E1F"/>
<path d="M64.5186 10.2044H64.7195C65.0168 10.2044 65.2296 10.2044 65.2296 9.85633V3.99844C65.2296 3.31431 65.0704 3.29324 64.667 3.17776V3.00951C65.0911 2.87304 65.5364 2.68332 65.7593 2.55677C65.8749 2.49407 65.9605 2.44086 65.9917 2.44086C66.0566 2.44086 66.0778 2.50439 66.0778 2.58887V9.85633C66.0778 10.2044 66.3106 10.2044 66.6079 10.2044H66.7868V10.4778C66.4278 10.4778 66.0566 10.4568 65.6745 10.4568C65.2932 10.4568 64.9115 10.4671 64.5186 10.4778V10.2044H64.5186Z" fill="#211E1F"/>
<path d="M71.3267 9.89845C71.3267 10.0885 71.4428 10.0988 71.6228 10.0988C71.7504 10.0988 71.9089 10.0885 72.0473 10.0885V10.31C71.5908 10.3516 70.7214 10.5727 70.5197 10.6354L70.4665 10.6036V9.75242C69.8312 10.2675 69.3426 10.6354 68.5893 10.6354C68.0168 10.6354 67.4231 10.2675 67.4231 9.38452V6.69087C67.4231 6.41746 67.381 6.15432 66.7881 6.10198V5.90198C67.1702 5.89167 68.0168 5.82853 68.1552 5.82853C68.2729 5.82853 68.2729 5.90198 68.2729 6.13333V8.84639C68.2729 9.1627 68.2729 10.067 69.1946 10.067C69.5551 10.067 70.032 9.79361 70.477 9.42655V6.59559C70.477 6.38607 69.9684 6.27059 69.5876 6.165V5.97571C70.5406 5.91222 71.1355 5.82849 71.2408 5.82849C71.3267 5.82849 71.3267 5.9019 71.3267 6.01817L71.3267 9.89845Z" fill="#211E1F"/>
<path d="M73.4367 6.4278C73.8604 6.07022 74.4329 5.67026 75.0166 5.67026C76.2469 5.67026 76.9883 6.73375 76.9883 7.87935C76.9883 9.25717 75.9709 10.6353 74.4536 10.6353C73.6695 10.6353 73.2562 10.3825 72.9801 10.2674L72.6625 10.5087L72.4405 10.3936C72.5345 9.773 72.5885 9.16268 72.5885 8.52141V3.9984C72.5885 3.31431 72.4284 3.29324 72.0259 3.17776V3.00951C72.4512 2.87304 72.8953 2.68332 73.1182 2.55673C73.235 2.49403 73.3194 2.44086 73.3522 2.44086C73.4154 2.44086 73.4366 2.50439 73.4366 2.58887V6.42776H73.4367V6.4278ZM73.4367 9.28852C73.4367 9.68852 73.818 10.3623 74.5285 10.3623C75.6632 10.3623 76.1401 9.25717 76.1401 8.3207C76.1401 7.18498 75.2715 6.23856 74.4441 6.23856C74.0508 6.23856 73.7227 6.49133 73.4367 6.73375L73.4367 9.28852Z" fill="#211E1F"/>
<path d="M27.6907 16.5932H27.7719C27.9791 16.5932 28.1984 16.5655 28.1984 16.2675V13.269C28.1984 12.9706 27.9791 12.9425 27.7719 12.9425H27.6907V12.7706C27.9159 12.7706 28.262 12.7932 28.5457 12.7932C28.8337 12.7932 29.1794 12.7706 29.4507 12.7706V12.9425H29.3695C29.1626 12.9425 28.943 12.9706 28.943 13.269V16.2675C28.943 16.5655 29.1626 16.5932 29.3695 16.5932H29.4507V16.7659C29.1738 16.7659 28.8269 16.7433 28.5393 16.7433C28.2564 16.7433 27.9159 16.7659 27.6907 16.7659V16.5932Z" fill="#211E1F"/>
<path d="M29.4508 16.7901C29.1719 16.7901 28.8263 16.7671 28.539 16.7671C28.2569 16.7671 27.9177 16.7901 27.6908 16.7901H27.666V16.7655V16.5937V16.5687H27.6908H27.7716C27.9808 16.5639 28.1713 16.5473 28.1733 16.2675V13.269C28.1713 12.9893 27.9809 12.9706 27.7716 12.9667H27.666V12.9425V12.7452H27.6908C27.9177 12.7452 28.2634 12.7679 28.5454 12.7679C28.8326 12.7679 29.178 12.7452 29.4508 12.7452H29.4764V12.7714V12.9667H29.4508H29.37C29.1607 12.9706 28.969 12.9893 28.9679 13.269V16.2675C28.969 16.5473 29.1607 16.5639 29.37 16.5687H29.4764V16.5937V16.7901H29.4508ZM29.426 16.7413V16.619H29.37C29.164 16.619 28.9187 16.5837 28.9175 16.2675V13.269C28.9187 12.9528 29.1639 12.9171 29.37 12.9171H29.426V12.7956C29.1595 12.7956 28.8254 12.8179 28.5454 12.8179C28.2713 12.8179 27.9396 12.7972 27.7164 12.7956V12.9171H27.7716C27.9772 12.9171 28.2233 12.9528 28.2233 13.269V16.2675C28.2233 16.5838 27.9772 16.619 27.7716 16.619H27.7164V16.7413C27.9396 16.7389 28.2657 16.7183 28.539 16.7183C28.8198 16.7183 29.1539 16.7397 29.426 16.7413Z" fill="#211E1F"/>
<path d="M33.4146 15.6377L33.4262 15.6266V13.4805C33.4262 13.0107 33.0969 12.9424 32.9241 12.9424H32.7968V12.7706C33.0685 12.7706 33.3337 12.7932 33.6046 12.7932C33.841 12.7932 34.0787 12.7706 34.3148 12.7706V12.9424H34.2283C33.9855 12.9424 33.7142 12.988 33.7142 13.669V16.2738C33.7142 16.4738 33.7202 16.6738 33.7486 16.8512H33.529L30.5583 13.5659V15.9242C30.5583 16.4222 30.6555 16.5933 31.1004 16.5933H31.198V16.7659C30.9504 16.7659 30.7027 16.7433 30.4542 16.7433C30.1954 16.7433 29.9297 16.7659 29.6697 16.7659V16.5933H29.7505C30.1486 16.5933 30.2695 16.325 30.2695 15.8675V13.4568C30.2695 13.1365 30.0034 12.9425 29.7449 12.9425H29.6697V12.7706C29.8889 12.7706 30.1138 12.7932 30.3327 12.7932C30.5059 12.7932 30.6736 12.7706 30.8464 12.7706L33.4146 15.6377Z" fill="#211E1F"/>
<path d="M33.7484 16.8763L33.5104 16.8675L30.5825 13.6306V15.9243C30.5893 16.4219 30.6657 16.5632 31.1002 16.5687H31.2238V16.5933V16.7901H31.1982C30.9486 16.7901 30.7001 16.7671 30.454 16.7671C30.1956 16.7671 29.9307 16.7901 29.669 16.7901H29.6438V16.7655V16.5687H29.669H29.7503C30.1316 16.5667 30.2404 16.3239 30.2448 15.8675V13.4572C30.2439 13.1524 29.9919 12.9675 29.7447 12.9667H29.6438V12.9413V12.7461H29.669C29.8895 12.7461 30.1155 12.7679 30.332 12.7679C30.5036 12.7679 30.6709 12.7461 30.8653 12.7544L33.4011 15.5858V13.4811C33.3979 13.0255 33.0918 12.9707 32.9238 12.9667H32.7709V12.9413V12.7461H32.7965C33.069 12.7461 33.3347 12.7679 33.6043 12.7679C33.8392 12.7679 34.0756 12.7461 34.3141 12.7461H34.3393V12.7707V12.9667H34.3141H34.2281C33.99 12.9735 33.7456 12.9941 33.7388 13.6691V16.2734C33.7388 16.4734 33.7448 16.6734 33.7728 16.8468L33.7784 16.8762H33.7484V16.8763ZM33.5292 16.8258H33.7201C33.6941 16.654 33.6897 16.4635 33.6897 16.2734V13.6691C33.6897 12.9822 33.9797 12.9171 34.2282 12.9171H34.289V12.7957C34.0617 12.7972 33.8337 12.8179 33.6045 12.8179C33.3404 12.8179 33.0836 12.7972 32.8223 12.7957L32.8219 12.9171H32.9239C33.1012 12.9171 33.4512 12.9957 33.4512 13.481L33.4432 15.6437L33.4316 15.6556L33.4121 15.6735L30.8462 12.7957C30.675 12.7957 30.5078 12.8179 30.3321 12.8179C30.1205 12.8179 29.904 12.7972 29.6948 12.7957L29.6936 12.9171H29.7448C30.0156 12.9171 30.2937 13.1222 30.2937 13.4572V15.8675C30.2937 16.325 30.1653 16.6178 29.7504 16.6194L29.6948 16.6178V16.7413C29.9448 16.7389 30.2017 16.7182 30.4541 16.7182C30.695 16.7182 30.9347 16.7389 31.1731 16.7413V16.6194H31.1003C30.6462 16.6178 30.5334 16.4218 30.5329 15.9242V13.5016L33.5292 16.8258ZM33.4012 15.6263V15.6243L33.3964 15.6203L33.4012 15.6263Z" fill="#211E1F"/>
<path d="M35.1784 13.0563C34.7451 13.0563 34.7287 13.1596 34.6422 13.577H34.469C34.4918 13.4171 34.5206 13.2571 34.5382 13.0905C34.5614 12.9302 34.5726 12.7706 34.5726 12.6048H34.7114C34.7578 12.7766 34.9019 12.7706 35.0583 12.7706H38.0346C38.1906 12.7706 38.3347 12.7651 38.3467 12.5929L38.4843 12.6159C38.4619 12.7706 38.4387 12.925 38.4211 13.0798C38.4107 13.2342 38.4107 13.3889 38.4107 13.5429L38.237 13.6067C38.225 13.3952 38.1962 13.0563 37.8101 13.0563H36.8639V16.1016C36.8639 16.5429 37.066 16.5933 37.342 16.5933H37.4521V16.7659C37.2272 16.7659 36.8227 16.7433 36.5118 16.7433C36.1658 16.7433 35.7613 16.7659 35.536 16.7659V16.5933H35.646C35.9641 16.5933 36.1249 16.5651 36.1249 16.1135V13.0563H35.1784Z" fill="#211E1F"/>
<path d="M37.4529 16.7901C37.2256 16.7901 36.8219 16.7671 36.5119 16.7671C36.1662 16.7671 35.7625 16.7901 35.536 16.7901H35.512V16.7659V16.5687H35.536H35.6461C35.9641 16.5611 36.0921 16.5572 36.0994 16.1135V13.0814H35.1784V13.0563V13.0309H36.1494V16.1135C36.1494 16.5726 35.963 16.619 35.6461 16.6194H35.5613V16.7401C35.7889 16.7389 36.177 16.7182 36.5119 16.7182C36.8128 16.7182 37.1985 16.7389 37.4265 16.7401V16.6194H37.3421C37.0632 16.619 36.8388 16.5512 36.8388 16.1016V13.0309H37.8102C38.1975 13.0325 38.2479 13.3591 38.2607 13.5714L38.3851 13.5258C38.3851 13.3766 38.3859 13.227 38.3963 13.0762C38.4132 12.929 38.4344 12.7829 38.456 12.6369L38.3679 12.6222C38.3411 12.7889 38.1791 12.7972 38.0338 12.7956H35.0583H35.0283C34.8927 12.7956 34.7443 12.7893 34.6926 12.6294H34.5974C34.5966 12.7877 34.5854 12.9413 34.5634 13.0936C34.5466 13.2508 34.5202 13.402 34.4986 13.5532H34.6222C34.6982 13.1544 34.7479 13.025 35.1783 13.031V13.0564V13.0814C34.7518 13.0889 34.7607 13.1604 34.6666 13.5834L34.6622 13.6028H34.6422H34.4402L34.4434 13.573C34.4666 13.4127 34.4958 13.2532 34.513 13.0865C34.537 12.9278 34.5482 12.769 34.5482 12.6048V12.5798H34.5726H34.7311L34.7351 12.5976C34.7747 12.7421 34.8815 12.7429 35.0283 12.7452H35.0583H38.0338C38.1947 12.7429 38.3115 12.7405 38.3215 12.5908L38.3239 12.5638L38.3499 12.5694L38.5127 12.5948L38.5091 12.6198C38.4859 12.773 38.4631 12.9278 38.4463 13.0813C38.4347 13.2337 38.4347 13.3885 38.4347 13.5429V13.5607L38.4187 13.5671L38.2143 13.6408L38.2127 13.6075C38.1975 13.3924 38.1747 13.0813 37.8102 13.0813H36.8892V16.1015C36.8944 16.5333 37.0672 16.563 37.342 16.5686H37.4773V16.5932V16.79L37.4529 16.7901Z" fill="#211E1F"/>
<path d="M38.6689 16.5932H38.7502C38.9575 16.5932 39.177 16.5655 39.177 16.2675V13.269C39.177 12.9706 38.9575 12.9425 38.7502 12.9425H38.6689V12.7706C39.0202 12.7706 39.6212 12.7932 40.1048 12.7932C40.5906 12.7932 41.1895 12.7706 41.5816 12.7706C41.5721 13.0163 41.5772 13.3948 41.5944 13.6461L41.4203 13.6921C41.3928 13.3203 41.3235 13.0231 40.7174 13.0231H39.916V14.5219H40.6018C40.9478 14.5219 41.0235 14.3278 41.0575 14.0179H41.2303C41.2192 14.2421 41.2131 14.4652 41.2131 14.6882C41.2131 14.906 41.2191 15.1231 41.2303 15.3406L41.0575 15.3746C41.0235 15.0314 41.0059 14.8084 40.6074 14.8084H39.9161V16.1413C39.9161 16.5139 40.2494 16.5139 40.619 16.5139C41.3116 16.5139 41.6168 16.4675 41.7901 15.8159L41.9518 15.8552C41.8761 16.1592 41.8073 16.4619 41.7561 16.7659C41.3864 16.7659 40.7227 16.7433 40.2041 16.7433C39.684 16.7433 38.9979 16.7659 38.6689 16.7659V16.5932Z" fill="#211E1F"/>
<path d="M41.7554 16.7901C41.3849 16.7901 40.7215 16.7667 40.2035 16.7667C39.6837 16.7667 38.9979 16.7901 38.6687 16.7901H38.6443V16.7659V16.5933V16.5687H38.6687H38.7495C38.9587 16.5655 39.1484 16.5473 39.1512 16.2675V13.2691C39.1484 12.9897 38.9587 12.9711 38.7495 12.9667H38.6443V12.9425V12.7461H38.6687C39.0207 12.7461 39.6209 12.7679 40.1046 12.7679C40.5899 12.7679 41.1884 12.7461 41.5813 12.7461H41.6073L41.6061 12.7715C41.6021 12.8576 41.6005 12.9591 41.6005 13.0671C41.6005 13.2651 41.6061 13.4814 41.6177 13.6445L41.6185 13.6651L41.5993 13.6707L41.3965 13.7231L41.3953 13.6938C41.3613 13.3223 41.3113 13.0529 40.7172 13.0473H39.9398L39.939 14.4961H40.6016C40.9337 14.493 40.9932 14.3243 41.0325 14.016L41.0345 13.9934H41.0569H41.2558L41.2554 14.0191C41.2442 14.2421 41.2369 14.4651 41.2369 14.6882C41.2369 14.9048 41.2442 15.1219 41.2554 15.3397L41.2558 15.36L41.235 15.3647L41.0345 15.4044L41.0325 15.3774C40.9929 15.0282 40.99 14.837 40.6067 14.8326L39.9398 14.8322V16.1413C39.9403 16.489 40.2427 16.487 40.6188 16.489C41.3133 16.485 41.5918 16.4517 41.7659 15.8088L41.7715 15.7858L41.7959 15.7901L41.9807 15.8373L41.9751 15.8612C41.9007 16.1643 41.8315 16.4667 41.7798 16.7699L41.7751 16.7901H41.7554ZM41.7342 16.7401C41.7842 16.4516 41.8502 16.162 41.9211 15.8738L41.807 15.8453C41.6342 16.4858 41.2996 16.5429 40.6187 16.5386C40.2554 16.5386 39.8913 16.5386 39.8897 16.1413V14.7834H40.6067C41.0096 14.779 41.0508 15.0203 41.0792 15.3461L41.2041 15.3203C41.1928 15.1095 41.1877 14.898 41.1877 14.6881C41.1877 14.4726 41.1928 14.2584 41.2041 14.0429H41.0792C41.0472 14.3409 40.9532 14.5504 40.6015 14.5465H39.8897V12.9972H40.7172C41.3174 12.9932 41.4169 13.3004 41.4425 13.6603L41.567 13.627C41.557 13.4655 41.5501 13.2584 41.5501 13.0671C41.5501 12.9691 41.5526 12.8766 41.5558 12.7957C41.1637 12.7972 40.5795 12.8179 40.1046 12.8179C39.6305 12.8179 39.0468 12.7972 38.6935 12.7957V12.9171H38.7495C38.9551 12.9171 39.2008 12.9528 39.2016 13.2691V16.2675C39.2008 16.583 38.9551 16.6179 38.7495 16.6195H38.6935V16.7401C39.03 16.7397 39.6966 16.7183 40.2034 16.7183C40.7123 16.7183 41.3621 16.7397 41.7342 16.7401Z" fill="#211E1F"/>
<path d="M42.7303 13.377C42.7303 12.9595 42.4998 12.9425 42.3202 12.9425H42.2166V12.7703C42.4014 12.7703 42.7586 12.7933 43.1108 12.7933C43.4568 12.7933 43.7341 12.7703 44.0394 12.7703C44.7659 12.7703 45.4129 12.9651 45.4129 13.7786C45.4129 14.2925 45.0669 14.6076 44.6111 14.7857L45.5973 16.25C45.7589 16.4921 45.8738 16.5599 46.1571 16.5932V16.7659C45.9666 16.7659 45.7817 16.7433 45.5917 16.7433C45.4129 16.7433 45.2276 16.7659 45.0495 16.7659C44.6054 16.1877 44.2238 15.5695 43.8489 14.9107H43.4692V16.1361C43.4692 16.5774 43.6761 16.5933 43.9413 16.5933H44.0453V16.7659C43.7157 16.7659 43.3825 16.7433 43.0531 16.7433C42.7759 16.7433 42.5046 16.7659 42.2166 16.7659V16.5933H42.3202C42.5346 16.5933 42.7303 16.4972 42.7303 16.2849V13.377ZM43.4692 14.7048H43.7509C44.3282 14.7048 44.639 14.4874 44.639 13.8119C44.639 13.3032 44.3106 12.9766 43.7965 12.9766C43.6232 12.9766 43.5496 12.9945 43.4691 12.9996V14.7048H43.4692Z" fill="#211E1F"/>
<path d="M46.157 16.7901C45.9637 16.7901 45.7801 16.7671 45.5904 16.7671C45.4144 16.7671 45.2304 16.7901 45.0291 16.7806C44.5866 16.2048 44.2073 15.5901 43.8344 14.9362H43.4935V16.1354C43.4995 16.566 43.674 16.5624 43.9409 16.5687H44.0701V16.5933V16.7902H44.0444C43.7148 16.7902 43.3799 16.7671 43.0522 16.7671C42.7765 16.7671 42.5061 16.7902 42.2164 16.7902H42.1912V16.7656V16.5687H42.2164H42.32C42.528 16.5675 42.7033 16.4779 42.7041 16.285V13.3771C42.6998 12.9708 42.4993 12.9731 42.32 12.9672H42.1912V12.9426V12.7454H42.2164C42.4033 12.7454 42.7593 12.7679 43.1106 12.7679C43.4551 12.7679 43.7324 12.7454 44.0397 12.7454C44.7666 12.7469 45.4364 12.9462 45.4384 13.7771C45.4384 14.2942 45.0939 14.6167 44.6486 14.7969L45.618 16.2366C45.7793 16.4739 45.8797 16.5331 46.1606 16.5687L46.1817 16.5719V16.5933V16.7902H46.157V16.7901ZM43.4684 14.8861H43.8628L43.8696 14.8988C44.2457 15.5564 44.6246 16.1738 45.0495 16.7413C45.2256 16.7413 45.4108 16.7179 45.5904 16.7179C45.7748 16.7179 45.9525 16.7377 46.1321 16.7405V16.6151C45.8613 16.5817 45.7345 16.5016 45.5768 16.2639L44.573 14.7738L44.6014 14.7623C45.0527 14.5861 45.3868 14.2802 45.3872 13.7769C45.3868 12.9829 44.765 12.7988 44.0397 12.7956C43.7352 12.7956 43.4583 12.8183 43.1106 12.8183C42.7718 12.8183 42.4297 12.7972 42.2408 12.7956V12.9171H42.32C42.4993 12.9175 42.7545 12.9468 42.7545 13.377V16.2849C42.7545 16.5147 42.5372 16.6194 42.32 16.6198H42.2408V16.7404C42.5185 16.7396 42.7813 16.7179 43.0522 16.7179C43.375 16.7179 43.7004 16.7397 44.0197 16.7404V16.6198H43.9408C43.6776 16.6194 43.4431 16.5869 43.4431 16.1353V14.8861H43.4683H43.4684ZM43.4684 14.729H43.4431V12.9766L43.4651 12.9746C43.544 12.9687 43.622 12.9524 43.7964 12.9524C44.3222 12.9524 44.6638 13.2913 44.6646 13.8131C44.663 14.4964 44.3325 14.7285 43.7508 14.7289H43.4684V14.729ZM43.7508 14.6798C44.3221 14.675 44.6094 14.4782 44.6154 13.8131C44.6122 13.3131 44.2989 13.0028 43.7964 13.0008C43.6403 13.0008 43.5671 13.0151 43.4935 13.0215V14.6798H43.7508Z" fill="#211E1F"/>
<path d="M50.0743 15.6377L50.0847 15.6266V13.4805C50.0847 13.0107 49.7562 12.9424 49.5834 12.9424H49.457V12.7706C49.7278 12.7706 49.9927 12.7932 50.2644 12.7932C50.5012 12.7932 50.7369 12.7706 50.9749 12.7706V12.9424H50.8881C50.6457 12.9424 50.3744 12.988 50.3744 13.669V16.2738C50.3744 16.4738 50.38 16.6738 50.4084 16.8512H50.1896L47.2185 13.5659V15.9242C47.2185 16.4222 47.3165 16.5933 47.7606 16.5933H47.8586V16.7659C47.6109 16.7659 47.3625 16.7433 47.1149 16.7433C46.8543 16.7433 46.5891 16.7659 46.3298 16.7659V16.5933H46.4099C46.8084 16.5933 46.9296 16.325 46.9296 15.8675V13.4568C46.9296 13.1365 46.6643 12.9425 46.4051 12.9425H46.3298V12.7706C46.5483 12.7706 46.7744 12.7932 46.9932 12.7932C47.1653 12.7932 47.3333 12.7706 47.5065 12.7706L50.0743 15.6377Z" fill="#211E1F"/>
<path d="M50.4086 16.8758L50.171 16.8679L47.2428 13.6306V15.9239C47.2496 16.4219 47.3256 16.5631 47.7608 16.5687H47.8829V16.5933V16.7901H47.8577C47.6081 16.7901 47.3608 16.7667 47.1135 16.7667C46.8559 16.7667 46.5894 16.7901 46.3297 16.7901H46.3037V16.7659V16.5687H46.3297H46.4097C46.7906 16.5671 46.8998 16.3239 46.9035 15.8659V13.4568C46.9031 13.152 46.6514 12.9671 46.405 12.9667H46.3037V12.9425V12.7453H46.3297C46.5498 12.7453 46.7755 12.7679 46.9931 12.7679C47.1627 12.7679 47.33 12.7453 47.5236 12.7532L50.0598 15.5858V13.4802C50.0582 13.0254 49.7509 12.9691 49.5833 12.9667H49.4308V12.9425V12.7453H49.4561C49.729 12.7453 49.9946 12.7679 50.2642 12.7679C50.4995 12.7679 50.736 12.7453 50.9736 12.7453H50.9988V12.7711V12.9667H50.9736H50.8879C50.6499 12.9731 50.4046 12.9941 50.3986 13.6691V16.2734C50.3986 16.4734 50.4039 16.6718 50.4331 16.848L50.4363 16.8758H50.4086ZM50.1894 16.8258H50.3791C50.3538 16.654 50.3482 16.4635 50.3482 16.2734V13.6691C50.3486 12.9821 50.6407 12.9187 50.8879 12.9167H50.9484V12.7957C50.7219 12.7972 50.4935 12.8179 50.2642 12.8179C49.9994 12.8179 49.742 12.7972 49.4808 12.7957V12.9167H49.5833C49.7609 12.9187 50.1106 12.9957 50.1106 13.4802L50.1026 15.6437L50.0914 15.6556L50.0738 15.6738L47.506 12.7957C47.3347 12.7957 47.1675 12.8179 46.9931 12.8179C46.7795 12.8179 46.5638 12.7973 46.3538 12.7957V12.9167H46.4049C46.6758 12.9187 46.9539 13.1215 46.9539 13.4568V15.8659C46.9539 16.3254 46.8235 16.6179 46.4098 16.6195L46.3538 16.6191V16.7401C46.603 16.7389 46.8603 16.7183 47.1135 16.7183C47.3556 16.7183 47.5953 16.7389 47.8337 16.7401V16.6195H47.7609C47.3064 16.6191 47.1928 16.4219 47.192 15.9238V13.5024L50.1894 16.8258ZM50.0598 15.6266V15.6246L50.0553 15.6203L50.0598 15.6266Z" fill="#211E1F"/>
<path d="M51.9027 15.9473C51.8444 16.1413 51.7747 16.2913 51.7747 16.3933C51.7747 16.5655 52.0176 16.5933 52.2073 16.5933H52.2717V16.7659C52.0405 16.7536 51.8048 16.7433 51.5723 16.7433C51.3647 16.7433 51.1582 16.7536 50.9502 16.7659V16.5933H50.985C51.2098 16.5933 51.4007 16.4619 51.4859 16.2211L52.4101 13.5948C52.4846 13.3829 52.5893 13.0968 52.6242 12.8846C52.8079 12.8223 53.0391 12.708 53.1484 12.6389C53.1663 12.633 53.1763 12.627 53.1944 12.627C53.2116 12.627 53.2227 12.627 53.2355 12.6449C53.2523 12.6901 53.2691 12.7421 53.2876 12.7877L54.349 15.7814C54.4182 15.9814 54.4866 16.1929 54.5615 16.3651C54.6311 16.5254 54.7527 16.5933 54.9435 16.5933H54.9775V16.7659C54.718 16.7536 54.4579 16.7433 54.1818 16.7433C53.8989 16.7433 53.6096 16.7536 53.3156 16.7659V16.5933H53.3796C53.5117 16.5933 53.7373 16.5711 53.7373 16.4278C53.7373 16.3536 53.6853 16.1992 53.6209 16.0155L53.3964 15.3516H52.0869L51.9027 15.9473ZM52.7446 13.4115H52.7329L52.1964 15.0314H53.2747L52.7446 13.4115Z" fill="#211E1F"/>
<path d="M54.976 16.7901C54.7163 16.7786 54.4566 16.7667 54.1818 16.7667C53.8989 16.7667 53.6116 16.7786 53.3163 16.7901L53.2903 16.7917V16.7659V16.5679H53.3156H53.3792C53.5128 16.5679 53.7112 16.5378 53.7112 16.4279C53.7129 16.3628 53.6608 16.2056 53.5972 16.0235L53.3775 15.3763H52.1049L51.9256 15.9544C51.8672 16.1497 51.7981 16.3008 51.7984 16.3941C51.8004 16.5338 52.016 16.5679 52.2073 16.5679H52.2961V16.5937V16.7917L52.2701 16.7901C52.0393 16.7786 51.8036 16.7667 51.5736 16.7667C51.3667 16.7667 51.1587 16.7786 50.9519 16.7901L50.925 16.7917V16.7659V16.5679H50.9502H50.9847C51.1995 16.5671 51.3788 16.4461 51.462 16.2132L52.3858 13.5866C52.4614 13.3743 52.5654 13.089 52.6154 12.8608C52.7963 12.8001 53.0279 12.685 53.1392 12.6152C53.1552 12.61 53.1712 12.6021 53.1948 12.6021C53.2088 12.6017 53.24 12.6053 53.2584 12.6355C53.2748 12.6826 53.2928 12.7335 53.3104 12.7799L54.3731 15.7732C54.4412 15.974 54.5099 16.1855 54.5852 16.3545C54.652 16.5073 54.758 16.5672 54.9436 16.568H55.0025V16.5938V16.7918L54.976 16.7901ZM53.3407 16.7389C53.6264 16.729 53.9061 16.7179 54.1818 16.7179C54.4498 16.7179 54.7007 16.729 54.9515 16.7389V16.6195H54.9435C54.7459 16.6207 54.6094 16.5437 54.5386 16.3751C54.4634 16.2012 54.393 15.9889 54.3254 15.7885L53.2631 12.7957C53.2456 12.7501 53.2287 12.6981 53.2135 12.6576C53.2087 12.652 53.2099 12.652 53.2051 12.652H53.1947C53.1827 12.652 53.1759 12.6556 53.1611 12.6596C53.0499 12.7314 52.8183 12.8437 52.6473 12.8885C52.6118 13.1052 52.5081 13.3909 52.4329 13.6028L51.5095 16.2298C51.4215 16.4782 51.2194 16.6199 50.9846 16.6195H50.9754V16.7389C51.173 16.729 51.3731 16.7179 51.5735 16.7179C51.7964 16.7179 52.0244 16.729 52.2445 16.7389V16.6195H52.2073C52.0197 16.6171 51.7572 16.596 51.75 16.3941C51.7504 16.2798 51.8212 16.1334 51.8776 15.9401L51.9028 15.9476L51.8776 15.9393L52.0676 15.3274H53.4128L53.6444 16.0076C53.7092 16.1913 53.7616 16.3437 53.7616 16.4278C53.7536 16.6036 53.51 16.6159 53.3791 16.6195H53.3407L53.3407 16.7389ZM52.1613 15.056L52.7138 13.3865H52.733H52.745H52.7622L53.3099 15.056H52.1613ZM52.2305 15.0064H53.2403L52.7382 13.4726L52.2305 15.0064Z" fill="#211E1F"/>
<path d="M55.2312 13.0563C54.7983 13.0563 54.7811 13.1596 54.6942 13.577H54.521C54.5438 13.4171 54.573 13.2571 54.5911 13.0905C54.6142 12.9302 54.6247 12.7706 54.6247 12.6048H54.7639C54.8099 12.7766 54.9548 12.7706 55.1096 12.7706H58.0875C58.2424 12.7706 58.3864 12.7651 58.3984 12.5929L58.5364 12.6159C58.5144 12.7706 58.4916 12.925 58.474 13.0798C58.4616 13.2342 58.4616 13.3889 58.4616 13.5429L58.2888 13.6067C58.2779 13.3952 58.2491 13.0563 57.8623 13.0563H56.916V16.1016C56.916 16.5429 57.1185 16.5933 57.3946 16.5933H57.5041V16.7659C57.2793 16.7659 56.876 16.7433 56.5639 16.7433C56.2183 16.7433 55.8137 16.7659 55.5889 16.7659V16.5933H55.6982C56.0162 16.5933 56.1779 16.5651 56.1779 16.1135V13.0563H55.2312Z" fill="#211E1F"/>
<path d="M57.5041 16.7901C57.2777 16.7901 56.8736 16.7671 56.5639 16.7671C56.219 16.7671 55.8149 16.7901 55.5888 16.7901H55.5633V16.7659V16.5687H55.5888H55.6981C56.0161 16.5612 56.1438 16.5572 56.1518 16.1135L56.151 13.0814H55.2311V13.0564V13.031H56.2018V16.1135C56.2018 16.5726 56.0149 16.6179 55.6981 16.6191H55.6133V16.7413C55.8417 16.7389 56.229 16.7183 56.5639 16.7183C56.8651 16.7183 57.2509 16.7389 57.4789 16.7413V16.6191H57.3937C57.1164 16.6179 56.8915 16.5516 56.8908 16.1016V13.031H57.8622C58.2495 13.0326 58.3002 13.3591 58.3111 13.5714L58.4371 13.5258C58.4371 13.3766 58.4375 13.227 58.4487 13.077C58.4647 12.9298 58.4863 12.783 58.5076 12.6369L58.4203 12.6222C58.3939 12.7889 58.2311 12.798 58.0875 12.7956H55.1095H55.0803C54.9443 12.7972 54.797 12.7893 54.7446 12.6285H54.6502C54.6486 12.7873 54.6378 12.9413 54.615 13.0937C54.5998 13.2512 54.5714 13.4028 54.5498 13.5532H54.6734C54.7498 13.1543 54.7999 13.025 55.2311 13.031V13.0564L55.2311 13.0814C54.8035 13.0885 54.8131 13.1603 54.7185 13.5833L54.7142 13.6028H54.6942H54.4917L54.4953 13.5742C54.5193 13.4127 54.5481 13.2532 54.5649 13.0877C54.5885 12.9278 54.5998 12.769 54.5998 12.6047V12.5797H54.6245H54.7821L54.787 12.5976C54.8274 12.742 54.9326 12.7428 55.0802 12.7452L55.1094 12.746H58.0874C58.2466 12.7429 58.363 12.7405 58.373 12.5913L58.3746 12.5639L58.4019 12.5695L58.5655 12.5949L58.5611 12.6199C58.5375 12.7731 58.5155 12.9278 58.4979 13.0814C58.4863 13.2338 58.4863 13.3889 58.4863 13.5429V13.5608L58.4699 13.5671L58.2655 13.6409L58.2643 13.6076C58.2495 13.3925 58.2267 13.0814 57.8622 13.0814H56.9408V16.1016C56.9468 16.5333 57.1192 16.5631 57.3937 16.5687H57.5289V16.5933V16.7901L57.5041 16.7901Z" fill="#211E1F"/>
<path d="M58.7495 16.5932H58.8304C59.0388 16.5932 59.2568 16.5655 59.2568 16.2675V13.269C59.2568 12.9706 59.0388 12.9425 58.8304 12.9425H58.7495V12.7706C58.9748 12.7706 59.3205 12.7932 59.6025 12.7932C59.8922 12.7932 60.2383 12.7706 60.5095 12.7706V12.9425H60.4287C60.2211 12.9425 60.001 12.9706 60.001 13.269V16.2675C60.001 16.5655 60.2211 16.5932 60.4287 16.5932H60.5095V16.7659C60.2323 16.7659 59.8858 16.7433 59.5981 16.7433C59.3149 16.7433 58.9748 16.7659 58.7495 16.7659V16.5932Z" fill="#211E1F"/>
<path d="M60.5095 16.7901C60.2307 16.7901 59.8854 16.7667 59.5978 16.7667C59.3157 16.7667 58.9748 16.7901 58.7495 16.7901H58.7244V16.7659V16.5933V16.5687H58.7495H58.8304C59.0388 16.5655 59.2301 16.5477 59.2309 16.2675V13.2691C59.2301 12.9897 59.0388 12.9706 58.8304 12.9667H58.7244V12.9425V12.7461H58.7495C58.9748 12.7461 59.3213 12.7679 59.6025 12.7679C59.8902 12.7679 60.2363 12.7461 60.5095 12.7461H60.534V12.7707V12.9667H60.5095H60.4287C60.2179 12.9707 60.0286 12.9897 60.0258 13.2691V16.2675C60.0286 16.5477 60.2179 16.5655 60.4287 16.5687H60.534V16.5933V16.7901H60.5095ZM60.4836 16.7401V16.6191H60.4287C60.2219 16.6191 59.9771 16.583 59.9771 16.2675V13.2691C59.9771 12.9528 60.2219 12.9171 60.4287 12.9171H60.4836V12.7957C60.2171 12.7972 59.8838 12.8179 59.6025 12.8179C59.3293 12.8179 58.9984 12.7972 58.7748 12.7957V12.9171H58.8304C59.0356 12.9171 59.2813 12.9528 59.2821 13.2691V16.2675C59.2813 16.583 59.0356 16.6191 58.8304 16.6191H58.7748V16.7401C58.9973 16.7377 59.3237 16.7183 59.5978 16.7183C59.8774 16.7183 60.2116 16.739 60.4836 16.7401Z" fill="#211E1F"/>
<path d="M62.8104 12.6849C64.0403 12.6849 65.0205 13.4413 65.0205 14.6599C65.0205 15.9766 64.0687 16.8516 62.8404 16.8516C61.6162 16.8516 60.6824 16.0274 60.6824 14.7968C60.6824 13.6068 61.6105 12.6849 62.8104 12.6849ZM62.8976 16.5996C64.0171 16.5996 64.212 15.6203 64.212 14.7857C64.212 13.9492 63.7575 12.9365 62.7993 12.9365C61.7894 12.9365 61.4898 13.8294 61.4898 14.5957C61.4898 15.6203 61.9627 16.5996 62.8976 16.5996Z" fill="#211E1F"/>
<path d="M60.6565 14.7968C60.6589 13.5928 61.5984 12.6615 62.8102 12.6599V12.6849V12.7091C61.6244 12.7091 60.7065 13.619 60.7053 14.7968C60.7081 16.0134 61.6288 16.8253 62.8403 16.8257C64.0565 16.8253 64.9948 15.9626 64.9967 14.6587C64.9956 13.4555 64.0301 12.7107 62.8103 12.7091V12.6849V12.6599C64.0497 12.6607 65.0432 13.4246 65.0456 14.6587C65.0444 15.9892 64.0801 16.8734 62.8403 16.8757C61.6063 16.8734 60.6589 16.0408 60.6566 14.7968H60.6565V14.7968ZM61.4648 14.5956C61.4663 13.8258 61.7696 12.9107 62.7994 12.9107C63.7789 12.9131 64.2362 13.9449 64.2377 14.7857C64.2362 15.6202 64.0382 16.6234 62.8979 16.6234V16.5996V16.575C63.995 16.5734 64.185 15.6202 64.1877 14.7857C64.1877 13.956 63.7372 12.9627 62.7994 12.9615C61.8096 12.9627 61.5167 13.8333 61.5148 14.5956C61.5156 15.6151 61.9841 16.5726 62.8979 16.575V16.5996V16.6234C61.94 16.6222 61.4663 15.6262 61.4648 14.5956Z" fill="#211E1F"/>
<path d="M68.9087 15.6377L68.9203 15.6266V13.4805C68.9203 13.0107 68.5907 12.9424 68.4174 12.9424H68.2926V12.7706C68.563 12.7706 68.8283 12.7932 69.0987 12.7932C69.336 12.7932 69.5724 12.7706 69.8093 12.7706V12.9424H69.7221C69.4804 12.9424 69.2088 12.988 69.2088 13.669V16.2738C69.2088 16.4738 69.2144 16.6738 69.2436 16.8512H69.0247L66.0528 13.5659V15.9242C66.0528 16.4222 66.1504 16.5933 66.5946 16.5933H66.6933V16.7659C66.4449 16.7659 66.1973 16.7433 65.9492 16.7433C65.6895 16.7433 65.4235 16.7659 65.1638 16.7659V16.5933H65.245C65.6439 16.5933 65.7636 16.325 65.7636 15.8675V13.4568C65.7636 13.1365 65.4994 12.9425 65.239 12.9425H65.1638V12.7706C65.383 12.7706 65.6083 12.7932 65.8272 12.7932C66.0004 12.7932 66.1673 12.7706 66.3409 12.7706L68.9087 15.6377Z" fill="#211E1F"/>
<path d="M69.244 16.8758L69.0052 16.8675L66.0777 13.6306V15.9243C66.0841 16.4219 66.1605 16.5628 66.5938 16.5679H66.7187V16.5937V16.7901H66.6934C66.4433 16.7901 66.1957 16.7671 65.9492 16.7671C65.6903 16.7671 65.4255 16.7901 65.1634 16.7901H65.1394V16.7655V16.5679H65.1634H65.2451C65.6256 16.5668 65.7348 16.3239 65.7395 15.8675V13.4568C65.7387 13.152 65.487 12.9671 65.239 12.9667H65.1394V12.9425V12.7461H65.1634C65.3847 12.7461 65.6095 12.768 65.8272 12.768C65.9984 12.768 66.1649 12.7461 66.3601 12.7545L68.8951 15.5858V13.4811C68.8935 13.0255 68.5862 12.9707 68.4174 12.9668H68.2658V12.9426V12.7462H68.2918C68.5634 12.7462 68.8295 12.768 69.0979 12.768C69.3347 12.768 69.57 12.7462 69.8093 12.7462H69.8341V12.7707V12.9668H69.8093H69.722C69.4847 12.9735 69.2392 12.9949 69.2343 13.6691V16.2735C69.2343 16.4735 69.2387 16.6731 69.2668 16.8481L69.2715 16.8759H69.244V16.8758ZM69.0249 16.8258H69.2137C69.1885 16.654 69.1841 16.4635 69.1841 16.2734V13.6691C69.1841 12.981 69.475 12.9187 69.7222 12.9167H69.7846V12.7957C69.557 12.7972 69.3289 12.8179 69.0981 12.8179C68.8356 12.8179 68.5775 12.7972 68.3163 12.7957V12.9167H68.4175C68.5964 12.9187 68.9444 12.9969 68.9444 13.481L68.9381 15.6437L68.9272 15.6556L68.9089 15.6738L66.3411 12.7957C66.171 12.7957 66.0026 12.8179 65.8274 12.8179C65.6149 12.8179 65.3984 12.7973 65.1884 12.7957V12.9167H65.2392C65.5101 12.9187 65.7889 13.1215 65.7889 13.4568V15.8675C65.7889 16.3251 65.6601 16.6179 65.2452 16.6195L65.1884 16.6191V16.7401C65.4388 16.739 65.6957 16.7183 65.9494 16.7183C66.1898 16.7183 66.4287 16.739 66.6684 16.7401V16.6195H66.5939C66.1411 16.6191 66.0279 16.4219 66.0279 15.9242V13.5016L69.0249 16.8258ZM68.8952 15.6266V15.6246L68.8904 15.6203L68.8952 15.6266Z" fill="#211E1F"/>
<path d="M70.7365 15.9473C70.6801 16.1413 70.6101 16.2913 70.6101 16.3933C70.6101 16.5655 70.8529 16.5933 71.0422 16.5933H71.1066V16.7659C70.8757 16.7536 70.6389 16.7433 70.4081 16.7433C70.1996 16.7433 69.9927 16.7536 69.7859 16.7659V16.5933H69.8187C70.0447 16.5933 70.236 16.4619 70.3213 16.2211L71.2455 13.5948C71.3198 13.3829 71.4243 13.0968 71.458 12.8846C71.6428 12.8223 71.8732 12.708 71.984 12.6389C72.0004 12.633 72.012 12.627 72.0297 12.627C72.0469 12.627 72.0576 12.627 72.0693 12.6449C72.0868 12.6901 72.1049 12.7421 72.1221 12.7877L73.1831 15.7814C73.2523 15.9814 73.3212 16.1929 73.3972 16.3651C73.4664 16.5254 73.588 16.5933 73.7777 16.5933H73.8129V16.7659C73.5528 16.7536 73.2932 16.7433 73.0159 16.7433C72.7338 16.7433 72.445 16.7536 72.1505 16.7659V16.5933H72.2146C72.3462 16.5933 72.5726 16.5711 72.5726 16.4278C72.5726 16.3536 72.5202 16.1992 72.4558 16.0155L72.2317 15.3516H70.9218L70.7365 15.9473ZM71.5799 13.4115H71.5683L71.031 15.0314H72.1108L71.5799 13.4115Z" fill="#211E1F"/>
<path d="M73.8103 16.7901C73.5506 16.7798 73.2914 16.7671 73.0157 16.7671C72.7344 16.7671 72.4456 16.7798 72.1511 16.7901L72.1255 16.7917V16.7655V16.5687H72.1503H72.2131C72.3475 16.5687 72.5464 16.5377 72.5468 16.4278C72.5479 16.3627 72.496 16.2068 72.4316 16.0234L72.2124 15.3762H70.9389L70.7604 15.9543C70.7028 16.1504 70.6339 16.3008 70.6352 16.3933C70.6352 16.5337 70.8512 16.5687 71.0421 16.5687H71.1301V16.5933V16.7917L71.1045 16.7901C70.8736 16.7798 70.6375 16.7671 70.4079 16.7671C70.2011 16.7671 69.9938 16.7798 69.7857 16.7901L69.7605 16.7917V16.7655V16.5687H69.7857H69.8185C70.0338 16.5678 70.2138 16.4453 70.2979 16.2131L71.2213 13.5865C71.2949 13.3742 71.3989 13.0889 71.4501 12.8615C71.6314 12.7992 71.863 12.6849 71.9751 12.6151C71.9902 12.6099 72.0059 12.6032 72.0294 12.6032C72.0447 12.6016 72.0742 12.6051 72.0926 12.6365C72.1098 12.6814 72.1267 12.7333 72.1459 12.7797L73.2069 15.773C73.2758 15.9738 73.345 16.1853 73.4198 16.3556C73.4873 16.5072 73.5926 16.5671 73.7766 16.5687H73.8367V16.5933V16.7917L73.8103 16.7901ZM72.1751 16.7397C72.4604 16.7289 72.7413 16.7178 73.0157 16.7178C73.2842 16.7178 73.5359 16.7289 73.7871 16.7389L73.7863 16.6194H73.7767C73.5814 16.6198 73.445 16.5436 73.3734 16.375C73.2974 16.2012 73.2286 15.9889 73.1597 15.7892L72.0978 12.7956C72.0806 12.75 72.0631 12.698 72.0491 12.6591C72.0442 12.652 72.0447 12.652 72.0402 12.652H72.0294C72.0175 12.652 72.011 12.6559 71.997 12.6599C71.8846 12.7301 71.6533 12.8444 71.4825 12.8885C71.4468 13.1051 71.3421 13.3905 71.2677 13.6028L70.3439 16.2297C70.2562 16.4782 70.0546 16.6198 69.8185 16.6194H69.8101V16.7389C70.0086 16.7289 70.207 16.7178 70.4078 16.7178C70.6315 16.7178 70.8591 16.7289 71.0812 16.7389V16.6194H71.042C70.8544 16.617 70.5911 16.5968 70.5843 16.3932C70.5855 16.2797 70.6571 16.1341 70.7127 15.9401L70.7363 15.9476L70.7127 15.9392L70.9028 15.3273H72.2483L72.4795 16.0075C72.5431 16.1916 72.5956 16.3436 72.5956 16.4278C72.5871 16.6036 72.3451 16.6158 72.213 16.6194H72.1751V16.7397H72.1751ZM70.9964 15.0556L71.5498 13.3865H71.5673H71.5798H71.5978L72.1431 15.0556H70.9964ZM71.0656 15.0063H72.0747L71.573 13.4734L71.0656 15.0063Z" fill="#211E1F"/>
<path d="M75.2665 16.2048C75.2665 16.4338 75.4266 16.502 75.6114 16.5254C75.8479 16.5429 76.1076 16.5429 76.3741 16.5139C76.6157 16.485 76.8238 16.3477 76.9269 16.2048C77.019 16.0786 77.071 15.9182 77.1058 15.7925H77.273C77.2098 16.1186 77.129 16.4401 77.0594 16.7659C76.5529 16.7659 76.044 16.7432 75.537 16.7432C75.0285 16.7432 74.5216 16.7659 74.0139 16.7659V16.5932H74.0931C74.302 16.5932 74.5276 16.5655 74.5276 16.2103V13.269C74.5276 12.9706 74.3019 12.9425 74.0931 12.9425H74.0139V12.7706C74.3187 12.7706 74.6192 12.7932 74.9245 12.7932C75.2198 12.7932 75.5079 12.7706 75.8023 12.7706V12.9425H75.657C75.4386 12.9425 75.2665 12.9488 75.2665 13.2512V16.2048Z" fill="#211E1F"/>
<path d="M77.0594 16.7901C76.5509 16.7901 76.0432 16.7671 75.5371 16.7671C75.0289 16.7671 74.5212 16.7901 74.0127 16.7901H73.9883V16.7655V16.5687H74.0127H74.0931C74.3024 16.5639 74.5 16.5496 74.5024 16.2103V13.2679C74.5 12.9897 74.3036 12.9707 74.0931 12.9667H73.9883V12.9425V12.7461H74.0127C74.3196 12.7461 74.6201 12.7679 74.9249 12.7679C75.2178 12.7679 75.5059 12.7461 75.8023 12.7461H75.826V12.7707V12.9667H75.8023H75.6575C75.4339 12.973 75.2946 12.9627 75.2902 13.2513V16.2048C75.2918 16.4179 75.4327 16.4755 75.6127 16.5005C75.7147 16.5076 75.8216 16.512 75.9328 16.512C76.074 16.512 76.2208 16.5052 76.3697 16.4893C76.6049 16.462 76.8074 16.3274 76.9066 16.1909C76.9954 16.0687 77.0467 15.9116 77.081 15.7866L77.0863 15.7676H77.1055H77.3035L77.2983 15.7977C77.2331 16.1251 77.1539 16.4449 77.0839 16.7707L77.0791 16.7902H77.0595H77.0594V16.7901ZM77.0386 16.7401C77.1054 16.4298 77.1811 16.1262 77.2431 15.8166H77.1246C77.0886 15.9413 77.0374 16.0948 76.9466 16.2198C76.8389 16.3682 76.6253 16.5079 76.3752 16.5385C76.224 16.554 76.0744 16.5619 75.9328 16.5619C75.8211 16.5619 75.7127 16.5567 75.6083 16.5495C75.4207 16.5289 75.2386 16.4495 75.2394 16.2047V13.2512C75.2394 12.9333 75.4422 12.917 75.6575 12.917H75.7767V12.7956C75.4923 12.7972 75.2122 12.8182 74.9249 12.8182C74.626 12.8182 74.3339 12.7972 74.0379 12.7956V12.917H74.0931C74.2992 12.917 74.5512 12.9528 74.5512 13.2678V16.2103C74.5512 16.5805 74.3003 16.619 74.0931 16.619H74.0379V16.7401C74.5368 16.7397 75.0357 16.7182 75.537 16.7182C76.0384 16.7182 76.5394 16.7397 77.0386 16.7401Z" fill="#211E1F"/>
<path d="M77.203 12.6079C77.5506 12.6079 77.8103 12.873 77.8103 13.2127C77.8103 13.5508 77.5507 13.8135 77.203 13.8135C76.8553 13.8135 76.5952 13.5508 76.5952 13.2127C76.5952 12.873 76.8552 12.6079 77.203 12.6079ZM77.203 13.7012C77.4746 13.7012 77.6835 13.471 77.6835 13.2127C77.6835 12.9528 77.4778 12.7206 77.203 12.7206C76.9297 12.7206 76.7208 12.9528 76.7208 13.2127C76.7208 13.471 76.9297 13.7012 77.203 13.7012ZM76.9005 13.5301V13.5004C76.9753 13.4901 76.9889 13.4924 76.9889 13.4464V13.0004C76.9889 12.9377 76.9821 12.9163 76.9033 12.9194V12.8889H77.2142C77.3214 12.8889 77.4194 12.9393 77.4194 13.0488C77.4194 13.1385 77.3594 13.2047 77.2757 13.2305L77.3754 13.3686C77.4222 13.4313 77.4746 13.4901 77.5094 13.5106V13.5301H77.391C77.3342 13.5301 77.2846 13.4114 77.1725 13.2523H77.1053V13.4527C77.1053 13.4924 77.1193 13.49 77.1942 13.5003V13.5301L76.9005 13.5301ZM77.1053 13.2127H77.177C77.2553 13.2127 77.2921 13.1535 77.2921 13.0587C77.2921 12.9627 77.2353 12.9289 77.1729 12.9289H77.1053V13.2127Z" fill="#211E1F"/>
<path d="M14.9033 20C20.4146 20.0262 25.4449 15.542 25.4449 10.0869C25.4449 4.12143 20.4146 -0.00198341 14.9033 7.15737e-07H10.1602C4.58286 -0.00198341 -0.0078125 4.12266 -0.0078125 10.0869C-0.0078125 15.5432 4.58286 20.0262 10.1602 20H14.9033Z" fill="#0079BE"/>
<path d="M10.1827 0.826599C5.08629 0.828186 0.956523 4.92541 0.955322 9.98219C0.956523 15.0381 5.08625 19.1349 10.1827 19.1365C15.2803 19.1349 19.4109 15.0381 19.4116 9.98219C19.4108 4.92541 15.2803 0.828186 10.1827 0.826599ZM4.33371 9.98219C4.33851 7.51116 5.89448 5.40402 8.08859 4.56668V15.3964C5.89448 14.5596 4.33847 12.4536 4.33371 9.98219ZM12.276 15.3988V4.56632C14.4709 5.40164 16.0292 7.50997 16.0332 9.98219C16.0292 12.4552 14.4709 14.5619 12.276 15.3988Z" fill="white"/>
<path d="M28.6769 4.30284C28.6769 3.35676 28.1796 3.41907 27.7027 3.40879V3.13538C28.116 3.15561 28.5397 3.15561 28.9538 3.15561C29.3991 3.15561 30.0037 3.13538 30.7886 3.13538C33.534 3.13538 35.0292 4.95442 35.0292 6.81708C35.0292 7.85875 34.4147 10.4774 30.661 10.4774C30.1204 10.4774 29.6215 10.4567 29.1234 10.4567C28.6465 10.4567 28.1796 10.4671 27.7026 10.4774V10.2044C28.3384 10.1409 28.6465 10.1199 28.6769 9.40438L28.6769 4.30284ZM29.7164 9.23653C29.7164 10.0464 30.3001 10.1409 30.8194 10.1409C33.1104 10.1409 33.8626 8.42621 33.8626 6.85875C33.8626 4.89248 32.5899 3.47264 30.5438 3.47264C30.1085 3.47264 29.9085 3.50359 29.7164 3.51474L29.7164 9.23653Z" fill="#211E1F"/>
<path d="M35.4014 10.2044H35.6022C35.8987 10.2044 36.1112 10.2044 36.1112 9.85634V7.00638C36.1112 6.54412 35.9523 6.4798 35.5598 6.27067V6.10202C36.058 5.95361 36.6525 5.75519 36.6941 5.72345C36.7689 5.68138 36.8321 5.67027 36.8854 5.67027C36.9378 5.67027 36.9598 5.73377 36.9598 5.81829V9.85634C36.9598 10.2044 37.193 10.2044 37.4899 10.2044H37.6699V10.4778C37.309 10.4778 36.9378 10.4568 36.5569 10.4568C36.1752 10.4568 35.7931 10.4671 35.4014 10.4778V10.2044H35.4014ZM36.5356 4.05079C36.2596 4.05079 36.0164 3.79845 36.0164 3.525C36.0164 3.2615 36.2708 3.01904 36.5356 3.01904C36.8105 3.01904 37.0554 3.24091 37.0554 3.525C37.0554 3.80912 36.8213 4.05079 36.5356 4.05079Z" fill="#211E1F"/>
<path d="M38.6774 7.0691C38.6774 6.68021 38.5601 6.57545 38.0628 6.37545V6.17588C38.5185 6.02866 38.9527 5.89176 39.4619 5.67033C39.4936 5.67033 39.5247 5.69176 39.5247 5.77549V6.45957C40.1301 6.02866 40.6498 5.67029 41.3612 5.67029C42.2614 5.67029 42.5794 6.32263 42.5794 7.14287V9.8564C42.5794 10.2044 42.8127 10.2044 43.1099 10.2044H43.3008V10.4778C42.9287 10.4778 42.5578 10.4568 42.177 10.4568C41.7948 10.4568 41.4127 10.4672 41.0315 10.4778V10.2044H41.2219C41.5195 10.2044 41.7305 10.2044 41.7305 9.8564V7.13295C41.7305 6.53255 41.3612 6.2385 40.7558 6.2385C40.4169 6.2385 39.876 6.51195 39.5247 6.74366V9.85632C39.5247 10.2044 39.7591 10.2044 40.0565 10.2044H40.2469V10.4778C39.876 10.4778 39.5043 10.4568 39.1226 10.4568C38.7413 10.4568 38.3589 10.4671 37.9775 10.4778V10.2044H38.1688C38.4657 10.2044 38.6773 10.2044 38.6773 9.85632V7.0691H38.6774Z" fill="#211E1F"/>
<path d="M44.107 7.57459C44.0849 7.66947 44.0849 7.82697 44.107 8.18491C44.1694 9.18372 44.8179 10.004 45.6649 10.004C46.2486 10.004 46.7055 9.68852 47.0973 9.29963L47.2453 9.44725C46.7572 10.0885 46.153 10.6353 45.284 10.6353C43.5976 10.6353 43.2583 9.01507 43.2583 8.34249C43.2583 6.28054 44.6578 5.67023 45.3996 5.67023C46.259 5.67023 47.1821 6.20638 47.1921 7.32142C47.1921 7.38531 47.1921 7.44761 47.1821 7.5115L47.086 7.57459H44.107ZM45.9842 7.23773C46.2486 7.23773 46.2799 7.10082 46.2799 6.97503C46.2799 6.43848 45.9514 6.00713 45.3573 6.00713C44.7111 6.00713 44.2658 6.47975 44.1386 7.23773H45.9842Z" fill="#211E1F"/>
<path d="M47.436 10.2044H47.7225C48.0185 10.2044 48.2306 10.2044 48.2306 9.85634V6.90118C48.2306 6.57539 47.8389 6.51189 47.6793 6.42777V6.27062C48.4535 5.94404 48.8779 5.67023 48.9744 5.67023C49.0372 5.67023 49.0684 5.70197 49.0684 5.80753V6.75396H49.0908C49.3552 6.34404 49.8014 5.67023 50.4475 5.67023C50.7128 5.67023 51.0517 5.8488 51.0517 6.22777C51.0517 6.51189 50.8508 6.76507 50.554 6.76507C50.2239 6.76507 50.2239 6.51189 49.8534 6.51189C49.673 6.51189 49.0797 6.75396 49.0797 7.38531V9.85634C49.0797 10.2044 49.2913 10.2044 49.5885 10.2044H50.1819V10.4778C49.5985 10.4671 49.1548 10.4568 48.6979 10.4568C48.2635 10.4568 47.8177 10.4671 47.4361 10.4778L47.436 10.2044Z" fill="#211E1F"/>
<path d="M51.5187 9.01509C51.6567 9.70953 52.0804 10.2989 52.855 10.2989C53.4791 10.2989 53.7127 9.92029 53.7127 9.55203C53.7127 8.31076 51.4018 8.71037 51.4018 7.01711C51.4018 6.42783 51.8795 5.67029 53.0454 5.67029C53.3843 5.67029 53.8399 5.76553 54.2532 5.97624L54.3285 7.04811H54.0841C53.9784 6.38616 53.6076 6.00723 52.9282 6.00723C52.5041 6.00723 52.1016 6.24934 52.1016 6.70128C52.1016 7.93303 54.5614 7.55326 54.5614 9.20445C54.5614 9.8985 53.9992 10.6354 52.7373 10.6354C52.3132 10.6354 51.8151 10.4882 51.4442 10.2783L51.3274 9.06838L51.5187 9.01509Z" fill="#211E1F"/>
<path d="M64.136 5.03929H63.8715C63.6699 3.80913 62.7897 3.31429 61.6026 3.31429C60.3824 3.31429 58.6115 4.12378 58.6115 6.64802C58.6115 8.77421 60.1395 10.2988 61.7719 10.2988C62.8213 10.2988 63.6915 9.5837 63.9035 8.47897L64.1468 8.54167L63.9035 10.0773C63.4582 10.3516 62.26 10.6353 61.5594 10.6353C59.0788 10.6353 57.51 9.04687 57.51 6.68016C57.51 4.52382 59.4501 2.97699 61.5281 2.97699C62.3868 2.97699 63.2138 3.25159 64.0304 3.53572L64.136 5.03929Z" fill="#211E1F"/>
<path d="M64.5186 10.2044H64.7195C65.0168 10.2044 65.2296 10.2044 65.2296 9.85633V3.99844C65.2296 3.31431 65.0704 3.29324 64.667 3.17776V3.00951C65.0911 2.87304 65.5364 2.68332 65.7593 2.55677C65.8749 2.49407 65.9605 2.44086 65.9917 2.44086C66.0566 2.44086 66.0778 2.50439 66.0778 2.58887V9.85633C66.0778 10.2044 66.3106 10.2044 66.6079 10.2044H66.7868V10.4778C66.4278 10.4778 66.0566 10.4568 65.6745 10.4568C65.2932 10.4568 64.9115 10.4671 64.5186 10.4778V10.2044H64.5186Z" fill="#211E1F"/>
<path d="M71.3267 9.89845C71.3267 10.0885 71.4428 10.0988 71.6228 10.0988C71.7504 10.0988 71.9089 10.0885 72.0473 10.0885V10.31C71.5908 10.3516 70.7214 10.5727 70.5197 10.6354L70.4665 10.6036V9.75242C69.8312 10.2675 69.3426 10.6354 68.5893 10.6354C68.0168 10.6354 67.4231 10.2675 67.4231 9.38452V6.69087C67.4231 6.41746 67.381 6.15432 66.7881 6.10198V5.90198C67.1702 5.89167 68.0168 5.82853 68.1552 5.82853C68.2729 5.82853 68.2729 5.90198 68.2729 6.13333V8.84639C68.2729 9.1627 68.2729 10.067 69.1946 10.067C69.5551 10.067 70.032 9.79361 70.477 9.42655V6.59559C70.477 6.38607 69.9684 6.27059 69.5876 6.165V5.97571C70.5406 5.91222 71.1355 5.82849 71.2408 5.82849C71.3267 5.82849 71.3267 5.9019 71.3267 6.01817L71.3267 9.89845Z" fill="#211E1F"/>
<path d="M73.4367 6.4278C73.8604 6.07022 74.4329 5.67026 75.0166 5.67026C76.2469 5.67026 76.9883 6.73375 76.9883 7.87935C76.9883 9.25717 75.9709 10.6353 74.4536 10.6353C73.6695 10.6353 73.2562 10.3825 72.9801 10.2674L72.6625 10.5087L72.4405 10.3936C72.5345 9.773 72.5885 9.16268 72.5885 8.52141V3.9984C72.5885 3.31431 72.4284 3.29324 72.0259 3.17776V3.00951C72.4512 2.87304 72.8953 2.68332 73.1182 2.55673C73.235 2.49403 73.3194 2.44086 73.3522 2.44086C73.4154 2.44086 73.4366 2.50439 73.4366 2.58887V6.42776H73.4367V6.4278ZM73.4367 9.28852C73.4367 9.68852 73.818 10.3623 74.5285 10.3623C75.6632 10.3623 76.1401 9.25717 76.1401 8.3207C76.1401 7.18498 75.2715 6.23856 74.4441 6.23856C74.0508 6.23856 73.7227 6.49133 73.4367 6.73375L73.4367 9.28852Z" fill="#211E1F"/>
<path d="M27.6907 16.5932H27.7719C27.9791 16.5932 28.1984 16.5655 28.1984 16.2675V13.269C28.1984 12.9706 27.9791 12.9425 27.7719 12.9425H27.6907V12.7706C27.9159 12.7706 28.262 12.7932 28.5457 12.7932C28.8337 12.7932 29.1794 12.7706 29.4507 12.7706V12.9425H29.3695C29.1626 12.9425 28.943 12.9706 28.943 13.269V16.2675C28.943 16.5655 29.1626 16.5932 29.3695 16.5932H29.4507V16.7659C29.1738 16.7659 28.8269 16.7433 28.5393 16.7433C28.2564 16.7433 27.9159 16.7659 27.6907 16.7659V16.5932Z" fill="#211E1F"/>
<path d="M29.4508 16.7901C29.1719 16.7901 28.8263 16.7671 28.539 16.7671C28.2569 16.7671 27.9177 16.7901 27.6908 16.7901H27.666V16.7655V16.5937V16.5687H27.6908H27.7716C27.9808 16.5639 28.1713 16.5473 28.1733 16.2675V13.269C28.1713 12.9893 27.9809 12.9706 27.7716 12.9667H27.666V12.9425V12.7452H27.6908C27.9177 12.7452 28.2634 12.7679 28.5454 12.7679C28.8326 12.7679 29.178 12.7452 29.4508 12.7452H29.4764V12.7714V12.9667H29.4508H29.37C29.1607 12.9706 28.969 12.9893 28.9679 13.269V16.2675C28.969 16.5473 29.1607 16.5639 29.37 16.5687H29.4764V16.5937V16.7901H29.4508ZM29.426 16.7413V16.619H29.37C29.164 16.619 28.9187 16.5837 28.9175 16.2675V13.269C28.9187 12.9528 29.1639 12.9171 29.37 12.9171H29.426V12.7956C29.1595 12.7956 28.8254 12.8179 28.5454 12.8179C28.2713 12.8179 27.9396 12.7972 27.7164 12.7956V12.9171H27.7716C27.9772 12.9171 28.2233 12.9528 28.2233 13.269V16.2675C28.2233 16.5838 27.9772 16.619 27.7716 16.619H27.7164V16.7413C27.9396 16.7389 28.2657 16.7183 28.539 16.7183C28.8198 16.7183 29.1539 16.7397 29.426 16.7413Z" fill="#211E1F"/>
<path d="M33.4146 15.6377L33.4262 15.6266V13.4805C33.4262 13.0107 33.0969 12.9424 32.9241 12.9424H32.7968V12.7706C33.0685 12.7706 33.3337 12.7932 33.6046 12.7932C33.841 12.7932 34.0787 12.7706 34.3148 12.7706V12.9424H34.2283C33.9855 12.9424 33.7142 12.988 33.7142 13.669V16.2738C33.7142 16.4738 33.7202 16.6738 33.7486 16.8512H33.529L30.5583 13.5659V15.9242C30.5583 16.4222 30.6555 16.5933 31.1004 16.5933H31.198V16.7659C30.9504 16.7659 30.7027 16.7433 30.4542 16.7433C30.1954 16.7433 29.9297 16.7659 29.6697 16.7659V16.5933H29.7505C30.1486 16.5933 30.2695 16.325 30.2695 15.8675V13.4568C30.2695 13.1365 30.0034 12.9425 29.7449 12.9425H29.6697V12.7706C29.8889 12.7706 30.1138 12.7932 30.3327 12.7932C30.5059 12.7932 30.6736 12.7706 30.8464 12.7706L33.4146 15.6377Z" fill="#211E1F"/>
<path d="M33.7484 16.8763L33.5104 16.8675L30.5825 13.6306V15.9243C30.5893 16.4219 30.6657 16.5632 31.1002 16.5687H31.2238V16.5933V16.7901H31.1982C30.9486 16.7901 30.7001 16.7671 30.454 16.7671C30.1956 16.7671 29.9307 16.7901 29.669 16.7901H29.6438V16.7655V16.5687H29.669H29.7503C30.1316 16.5667 30.2404 16.3239 30.2448 15.8675V13.4572C30.2439 13.1524 29.9919 12.9675 29.7447 12.9667H29.6438V12.9413V12.7461H29.669C29.8895 12.7461 30.1155 12.7679 30.332 12.7679C30.5036 12.7679 30.6709 12.7461 30.8653 12.7544L33.4011 15.5858V13.4811C33.3979 13.0255 33.0918 12.9707 32.9238 12.9667H32.7709V12.9413V12.7461H32.7965C33.069 12.7461 33.3347 12.7679 33.6043 12.7679C33.8392 12.7679 34.0756 12.7461 34.3141 12.7461H34.3393V12.7707V12.9667H34.3141H34.2281C33.99 12.9735 33.7456 12.9941 33.7388 13.6691V16.2734C33.7388 16.4734 33.7448 16.6734 33.7728 16.8468L33.7784 16.8762H33.7484V16.8763ZM33.5292 16.8258H33.7201C33.6941 16.654 33.6897 16.4635 33.6897 16.2734V13.6691C33.6897 12.9822 33.9797 12.9171 34.2282 12.9171H34.289V12.7957C34.0617 12.7972 33.8337 12.8179 33.6045 12.8179C33.3404 12.8179 33.0836 12.7972 32.8223 12.7957L32.8219 12.9171H32.9239C33.1012 12.9171 33.4512 12.9957 33.4512 13.481L33.4432 15.6437L33.4316 15.6556L33.4121 15.6735L30.8462 12.7957C30.675 12.7957 30.5078 12.8179 30.3321 12.8179C30.1205 12.8179 29.904 12.7972 29.6948 12.7957L29.6936 12.9171H29.7448C30.0156 12.9171 30.2937 13.1222 30.2937 13.4572V15.8675C30.2937 16.325 30.1653 16.6178 29.7504 16.6194L29.6948 16.6178V16.7413C29.9448 16.7389 30.2017 16.7182 30.4541 16.7182C30.695 16.7182 30.9347 16.7389 31.1731 16.7413V16.6194H31.1003C30.6462 16.6178 30.5334 16.4218 30.5329 15.9242V13.5016L33.5292 16.8258ZM33.4012 15.6263V15.6243L33.3964 15.6203L33.4012 15.6263Z" fill="#211E1F"/>
<path d="M35.1784 13.0563C34.7451 13.0563 34.7287 13.1596 34.6422 13.577H34.469C34.4918 13.4171 34.5206 13.2571 34.5382 13.0905C34.5614 12.9302 34.5726 12.7706 34.5726 12.6048H34.7114C34.7578 12.7766 34.9019 12.7706 35.0583 12.7706H38.0346C38.1906 12.7706 38.3347 12.7651 38.3467 12.5929L38.4843 12.6159C38.4619 12.7706 38.4387 12.925 38.4211 13.0798C38.4107 13.2342 38.4107 13.3889 38.4107 13.5429L38.237 13.6067C38.225 13.3952 38.1962 13.0563 37.8101 13.0563H36.8639V16.1016C36.8639 16.5429 37.066 16.5933 37.342 16.5933H37.4521V16.7659C37.2272 16.7659 36.8227 16.7433 36.5118 16.7433C36.1658 16.7433 35.7613 16.7659 35.536 16.7659V16.5933H35.646C35.9641 16.5933 36.1249 16.5651 36.1249 16.1135V13.0563H35.1784Z" fill="#211E1F"/>
<path d="M37.4529 16.7901C37.2256 16.7901 36.8219 16.7671 36.5119 16.7671C36.1662 16.7671 35.7625 16.7901 35.536 16.7901H35.512V16.7659V16.5687H35.536H35.6461C35.9641 16.5611 36.0921 16.5572 36.0994 16.1135V13.0814H35.1784V13.0563V13.0309H36.1494V16.1135C36.1494 16.5726 35.963 16.619 35.6461 16.6194H35.5613V16.7401C35.7889 16.7389 36.177 16.7182 36.5119 16.7182C36.8128 16.7182 37.1985 16.7389 37.4265 16.7401V16.6194H37.3421C37.0632 16.619 36.8388 16.5512 36.8388 16.1016V13.0309H37.8102C38.1975 13.0325 38.2479 13.3591 38.2607 13.5714L38.3851 13.5258C38.3851 13.3766 38.3859 13.227 38.3963 13.0762C38.4132 12.929 38.4344 12.7829 38.456 12.6369L38.3679 12.6222C38.3411 12.7889 38.1791 12.7972 38.0338 12.7956H35.0583H35.0283C34.8927 12.7956 34.7443 12.7893 34.6926 12.6294H34.5974C34.5966 12.7877 34.5854 12.9413 34.5634 13.0936C34.5466 13.2508 34.5202 13.402 34.4986 13.5532H34.6222C34.6982 13.1544 34.7479 13.025 35.1783 13.031V13.0564V13.0814C34.7518 13.0889 34.7607 13.1604 34.6666 13.5834L34.6622 13.6028H34.6422H34.4402L34.4434 13.573C34.4666 13.4127 34.4958 13.2532 34.513 13.0865C34.537 12.9278 34.5482 12.769 34.5482 12.6048V12.5798H34.5726H34.7311L34.7351 12.5976C34.7747 12.7421 34.8815 12.7429 35.0283 12.7452H35.0583H38.0338C38.1947 12.7429 38.3115 12.7405 38.3215 12.5908L38.3239 12.5638L38.3499 12.5694L38.5127 12.5948L38.5091 12.6198C38.4859 12.773 38.4631 12.9278 38.4463 13.0813C38.4347 13.2337 38.4347 13.3885 38.4347 13.5429V13.5607L38.4187 13.5671L38.2143 13.6408L38.2127 13.6075C38.1975 13.3924 38.1747 13.0813 37.8102 13.0813H36.8892V16.1015C36.8944 16.5333 37.0672 16.563 37.342 16.5686H37.4773V16.5932V16.79L37.4529 16.7901Z" fill="#211E1F"/>
<path d="M38.6689 16.5932H38.7502C38.9575 16.5932 39.177 16.5655 39.177 16.2675V13.269C39.177 12.9706 38.9575 12.9425 38.7502 12.9425H38.6689V12.7706C39.0202 12.7706 39.6212 12.7932 40.1048 12.7932C40.5906 12.7932 41.1895 12.7706 41.5816 12.7706C41.5721 13.0163 41.5772 13.3948 41.5944 13.6461L41.4203 13.6921C41.3928 13.3203 41.3235 13.0231 40.7174 13.0231H39.916V14.5219H40.6018C40.9478 14.5219 41.0235 14.3278 41.0575 14.0179H41.2303C41.2192 14.2421 41.2131 14.4652 41.2131 14.6882C41.2131 14.906 41.2191 15.1231 41.2303 15.3406L41.0575 15.3746C41.0235 15.0314 41.0059 14.8084 40.6074 14.8084H39.9161V16.1413C39.9161 16.5139 40.2494 16.5139 40.619 16.5139C41.3116 16.5139 41.6168 16.4675 41.7901 15.8159L41.9518 15.8552C41.8761 16.1592 41.8073 16.4619 41.7561 16.7659C41.3864 16.7659 40.7227 16.7433 40.2041 16.7433C39.684 16.7433 38.9979 16.7659 38.6689 16.7659V16.5932Z" fill="#211E1F"/>
<path d="M41.7554 16.7901C41.3849 16.7901 40.7215 16.7667 40.2035 16.7667C39.6837 16.7667 38.9979 16.7901 38.6687 16.7901H38.6443V16.7659V16.5933V16.5687H38.6687H38.7495C38.9587 16.5655 39.1484 16.5473 39.1512 16.2675V13.2691C39.1484 12.9897 38.9587 12.9711 38.7495 12.9667H38.6443V12.9425V12.7461H38.6687C39.0207 12.7461 39.6209 12.7679 40.1046 12.7679C40.5899 12.7679 41.1884 12.7461 41.5813 12.7461H41.6073L41.6061 12.7715C41.6021 12.8576 41.6005 12.9591 41.6005 13.0671C41.6005 13.2651 41.6061 13.4814 41.6177 13.6445L41.6185 13.6651L41.5993 13.6707L41.3965 13.7231L41.3953 13.6938C41.3613 13.3223 41.3113 13.0529 40.7172 13.0473H39.9398L39.939 14.4961H40.6016C40.9337 14.493 40.9932 14.3243 41.0325 14.016L41.0345 13.9934H41.0569H41.2558L41.2554 14.0191C41.2442 14.2421 41.2369 14.4651 41.2369 14.6882C41.2369 14.9048 41.2442 15.1219 41.2554 15.3397L41.2558 15.36L41.235 15.3647L41.0345 15.4044L41.0325 15.3774C40.9929 15.0282 40.99 14.837 40.6067 14.8326L39.9398 14.8322V16.1413C39.9403 16.489 40.2427 16.487 40.6188 16.489C41.3133 16.485 41.5918 16.4517 41.7659 15.8088L41.7715 15.7858L41.7959 15.7901L41.9807 15.8373L41.9751 15.8612C41.9007 16.1643 41.8315 16.4667 41.7798 16.7699L41.7751 16.7901H41.7554ZM41.7342 16.7401C41.7842 16.4516 41.8502 16.162 41.9211 15.8738L41.807 15.8453C41.6342 16.4858 41.2996 16.5429 40.6187 16.5386C40.2554 16.5386 39.8913 16.5386 39.8897 16.1413V14.7834H40.6067C41.0096 14.779 41.0508 15.0203 41.0792 15.3461L41.2041 15.3203C41.1928 15.1095 41.1877 14.898 41.1877 14.6881C41.1877 14.4726 41.1928 14.2584 41.2041 14.0429H41.0792C41.0472 14.3409 40.9532 14.5504 40.6015 14.5465H39.8897V12.9972H40.7172C41.3174 12.9932 41.4169 13.3004 41.4425 13.6603L41.567 13.627C41.557 13.4655 41.5501 13.2584 41.5501 13.0671C41.5501 12.9691 41.5526 12.8766 41.5558 12.7957C41.1637 12.7972 40.5795 12.8179 40.1046 12.8179C39.6305 12.8179 39.0468 12.7972 38.6935 12.7957V12.9171H38.7495C38.9551 12.9171 39.2008 12.9528 39.2016 13.2691V16.2675C39.2008 16.583 38.9551 16.6179 38.7495 16.6195H38.6935V16.7401C39.03 16.7397 39.6966 16.7183 40.2034 16.7183C40.7123 16.7183 41.3621 16.7397 41.7342 16.7401Z" fill="#211E1F"/>
<path d="M42.7303 13.377C42.7303 12.9595 42.4998 12.9425 42.3202 12.9425H42.2166V12.7703C42.4014 12.7703 42.7586 12.7933 43.1108 12.7933C43.4568 12.7933 43.7341 12.7703 44.0394 12.7703C44.7659 12.7703 45.4129 12.9651 45.4129 13.7786C45.4129 14.2925 45.0669 14.6076 44.6111 14.7857L45.5973 16.25C45.7589 16.4921 45.8738 16.5599 46.1571 16.5932V16.7659C45.9666 16.7659 45.7817 16.7433 45.5917 16.7433C45.4129 16.7433 45.2276 16.7659 45.0495 16.7659C44.6054 16.1877 44.2238 15.5695 43.8489 14.9107H43.4692V16.1361C43.4692 16.5774 43.6761 16.5933 43.9413 16.5933H44.0453V16.7659C43.7157 16.7659 43.3825 16.7433 43.0531 16.7433C42.7759 16.7433 42.5046 16.7659 42.2166 16.7659V16.5933H42.3202C42.5346 16.5933 42.7303 16.4972 42.7303 16.2849V13.377ZM43.4692 14.7048H43.7509C44.3282 14.7048 44.639 14.4874 44.639 13.8119C44.639 13.3032 44.3106 12.9766 43.7965 12.9766C43.6232 12.9766 43.5496 12.9945 43.4691 12.9996V14.7048H43.4692Z" fill="#211E1F"/>
<path d="M46.157 16.7901C45.9637 16.7901 45.7801 16.7671 45.5904 16.7671C45.4144 16.7671 45.2304 16.7901 45.0291 16.7806C44.5866 16.2048 44.2073 15.5901 43.8344 14.9362H43.4935V16.1354C43.4995 16.566 43.674 16.5624 43.9409 16.5687H44.0701V16.5933V16.7902H44.0444C43.7148 16.7902 43.3799 16.7671 43.0522 16.7671C42.7765 16.7671 42.5061 16.7902 42.2164 16.7902H42.1912V16.7656V16.5687H42.2164H42.32C42.528 16.5675 42.7033 16.4779 42.7041 16.285V13.3771C42.6998 12.9708 42.4993 12.9731 42.32 12.9672H42.1912V12.9426V12.7454H42.2164C42.4033 12.7454 42.7593 12.7679 43.1106 12.7679C43.4551 12.7679 43.7324 12.7454 44.0397 12.7454C44.7666 12.7469 45.4364 12.9462 45.4384 13.7771C45.4384 14.2942 45.0939 14.6167 44.6486 14.7969L45.618 16.2366C45.7793 16.4739 45.8797 16.5331 46.1606 16.5687L46.1817 16.5719V16.5933V16.7902H46.157V16.7901ZM43.4684 14.8861H43.8628L43.8696 14.8988C44.2457 15.5564 44.6246 16.1738 45.0495 16.7413C45.2256 16.7413 45.4108 16.7179 45.5904 16.7179C45.7748 16.7179 45.9525 16.7377 46.1321 16.7405V16.6151C45.8613 16.5817 45.7345 16.5016 45.5768 16.2639L44.573 14.7738L44.6014 14.7623C45.0527 14.5861 45.3868 14.2802 45.3872 13.7769C45.3868 12.9829 44.765 12.7988 44.0397 12.7956C43.7352 12.7956 43.4583 12.8183 43.1106 12.8183C42.7718 12.8183 42.4297 12.7972 42.2408 12.7956V12.9171H42.32C42.4993 12.9175 42.7545 12.9468 42.7545 13.377V16.2849C42.7545 16.5147 42.5372 16.6194 42.32 16.6198H42.2408V16.7404C42.5185 16.7396 42.7813 16.7179 43.0522 16.7179C43.375 16.7179 43.7004 16.7397 44.0197 16.7404V16.6198H43.9408C43.6776 16.6194 43.4431 16.5869 43.4431 16.1353V14.8861H43.4683H43.4684ZM43.4684 14.729H43.4431V12.9766L43.4651 12.9746C43.544 12.9687 43.622 12.9524 43.7964 12.9524C44.3222 12.9524 44.6638 13.2913 44.6646 13.8131C44.663 14.4964 44.3325 14.7285 43.7508 14.7289H43.4684V14.729ZM43.7508 14.6798C44.3221 14.675 44.6094 14.4782 44.6154 13.8131C44.6122 13.3131 44.2989 13.0028 43.7964 13.0008C43.6403 13.0008 43.5671 13.0151 43.4935 13.0215V14.6798H43.7508Z" fill="#211E1F"/>
<path d="M50.0743 15.6377L50.0847 15.6266V13.4805C50.0847 13.0107 49.7562 12.9424 49.5834 12.9424H49.457V12.7706C49.7278 12.7706 49.9927 12.7932 50.2644 12.7932C50.5012 12.7932 50.7369 12.7706 50.9749 12.7706V12.9424H50.8881C50.6457 12.9424 50.3744 12.988 50.3744 13.669V16.2738C50.3744 16.4738 50.38 16.6738 50.4084 16.8512H50.1896L47.2185 13.5659V15.9242C47.2185 16.4222 47.3165 16.5933 47.7606 16.5933H47.8586V16.7659C47.6109 16.7659 47.3625 16.7433 47.1149 16.7433C46.8543 16.7433 46.5891 16.7659 46.3298 16.7659V16.5933H46.4099C46.8084 16.5933 46.9296 16.325 46.9296 15.8675V13.4568C46.9296 13.1365 46.6643 12.9425 46.4051 12.9425H46.3298V12.7706C46.5483 12.7706 46.7744 12.7932 46.9932 12.7932C47.1653 12.7932 47.3333 12.7706 47.5065 12.7706L50.0743 15.6377Z" fill="#211E1F"/>
<path d="M50.4086 16.8758L50.171 16.8679L47.2428 13.6306V15.9239C47.2496 16.4219 47.3256 16.5631 47.7608 16.5687H47.8829V16.5933V16.7901H47.8577C47.6081 16.7901 47.3608 16.7667 47.1135 16.7667C46.8559 16.7667 46.5894 16.7901 46.3297 16.7901H46.3037V16.7659V16.5687H46.3297H46.4097C46.7906 16.5671 46.8998 16.3239 46.9035 15.8659V13.4568C46.9031 13.152 46.6514 12.9671 46.405 12.9667H46.3037V12.9425V12.7453H46.3297C46.5498 12.7453 46.7755 12.7679 46.9931 12.7679C47.1627 12.7679 47.33 12.7453 47.5236 12.7532L50.0598 15.5858V13.4802C50.0582 13.0254 49.7509 12.9691 49.5833 12.9667H49.4308V12.9425V12.7453H49.4561C49.729 12.7453 49.9946 12.7679 50.2642 12.7679C50.4995 12.7679 50.736 12.7453 50.9736 12.7453H50.9988V12.7711V12.9667H50.9736H50.8879C50.6499 12.9731 50.4046 12.9941 50.3986 13.6691V16.2734C50.3986 16.4734 50.4039 16.6718 50.4331 16.848L50.4363 16.8758H50.4086ZM50.1894 16.8258H50.3791C50.3538 16.654 50.3482 16.4635 50.3482 16.2734V13.6691C50.3486 12.9821 50.6407 12.9187 50.8879 12.9167H50.9484V12.7957C50.7219 12.7972 50.4935 12.8179 50.2642 12.8179C49.9994 12.8179 49.742 12.7972 49.4808 12.7957V12.9167H49.5833C49.7609 12.9187 50.1106 12.9957 50.1106 13.4802L50.1026 15.6437L50.0914 15.6556L50.0738 15.6738L47.506 12.7957C47.3347 12.7957 47.1675 12.8179 46.9931 12.8179C46.7795 12.8179 46.5638 12.7973 46.3538 12.7957V12.9167H46.4049C46.6758 12.9187 46.9539 13.1215 46.9539 13.4568V15.8659C46.9539 16.3254 46.8235 16.6179 46.4098 16.6195L46.3538 16.6191V16.7401C46.603 16.7389 46.8603 16.7183 47.1135 16.7183C47.3556 16.7183 47.5953 16.7389 47.8337 16.7401V16.6195H47.7609C47.3064 16.6191 47.1928 16.4219 47.192 15.9238V13.5024L50.1894 16.8258ZM50.0598 15.6266V15.6246L50.0553 15.6203L50.0598 15.6266Z" fill="#211E1F"/>
<path d="M51.9027 15.9473C51.8444 16.1413 51.7747 16.2913 51.7747 16.3933C51.7747 16.5655 52.0176 16.5933 52.2073 16.5933H52.2717V16.7659C52.0405 16.7536 51.8048 16.7433 51.5723 16.7433C51.3647 16.7433 51.1582 16.7536 50.9502 16.7659V16.5933H50.985C51.2098 16.5933 51.4007 16.4619 51.4859 16.2211L52.4101 13.5948C52.4846 13.3829 52.5893 13.0968 52.6242 12.8846C52.8079 12.8223 53.0391 12.708 53.1484 12.6389C53.1663 12.633 53.1763 12.627 53.1944 12.627C53.2116 12.627 53.2227 12.627 53.2355 12.6449C53.2523 12.6901 53.2691 12.7421 53.2876 12.7877L54.349 15.7814C54.4182 15.9814 54.4866 16.1929 54.5615 16.3651C54.6311 16.5254 54.7527 16.5933 54.9435 16.5933H54.9775V16.7659C54.718 16.7536 54.4579 16.7433 54.1818 16.7433C53.8989 16.7433 53.6096 16.7536 53.3156 16.7659V16.5933H53.3796C53.5117 16.5933 53.7373 16.5711 53.7373 16.4278C53.7373 16.3536 53.6853 16.1992 53.6209 16.0155L53.3964 15.3516H52.0869L51.9027 15.9473ZM52.7446 13.4115H52.7329L52.1964 15.0314H53.2747L52.7446 13.4115Z" fill="#211E1F"/>
<path d="M54.976 16.7901C54.7163 16.7786 54.4566 16.7667 54.1818 16.7667C53.8989 16.7667 53.6116 16.7786 53.3163 16.7901L53.2903 16.7917V16.7659V16.5679H53.3156H53.3792C53.5128 16.5679 53.7112 16.5378 53.7112 16.4279C53.7129 16.3628 53.6608 16.2056 53.5972 16.0235L53.3775 15.3763H52.1049L51.9256 15.9544C51.8672 16.1497 51.7981 16.3008 51.7984 16.3941C51.8004 16.5338 52.016 16.5679 52.2073 16.5679H52.2961V16.5937V16.7917L52.2701 16.7901C52.0393 16.7786 51.8036 16.7667 51.5736 16.7667C51.3667 16.7667 51.1587 16.7786 50.9519 16.7901L50.925 16.7917V16.7659V16.5679H50.9502H50.9847C51.1995 16.5671 51.3788 16.4461 51.462 16.2132L52.3858 13.5866C52.4614 13.3743 52.5654 13.089 52.6154 12.8608C52.7963 12.8001 53.0279 12.685 53.1392 12.6152C53.1552 12.61 53.1712 12.6021 53.1948 12.6021C53.2088 12.6017 53.24 12.6053 53.2584 12.6355C53.2748 12.6826 53.2928 12.7335 53.3104 12.7799L54.3731 15.7732C54.4412 15.974 54.5099 16.1855 54.5852 16.3545C54.652 16.5073 54.758 16.5672 54.9436 16.568H55.0025V16.5938V16.7918L54.976 16.7901ZM53.3407 16.7389C53.6264 16.729 53.9061 16.7179 54.1818 16.7179C54.4498 16.7179 54.7007 16.729 54.9515 16.7389V16.6195H54.9435C54.7459 16.6207 54.6094 16.5437 54.5386 16.3751C54.4634 16.2012 54.393 15.9889 54.3254 15.7885L53.2631 12.7957C53.2456 12.7501 53.2287 12.6981 53.2135 12.6576C53.2087 12.652 53.2099 12.652 53.2051 12.652H53.1947C53.1827 12.652 53.1759 12.6556 53.1611 12.6596C53.0499 12.7314 52.8183 12.8437 52.6473 12.8885C52.6118 13.1052 52.5081 13.3909 52.4329 13.6028L51.5095 16.2298C51.4215 16.4782 51.2194 16.6199 50.9846 16.6195H50.9754V16.7389C51.173 16.729 51.3731 16.7179 51.5735 16.7179C51.7964 16.7179 52.0244 16.729 52.2445 16.7389V16.6195H52.2073C52.0197 16.6171 51.7572 16.596 51.75 16.3941C51.7504 16.2798 51.8212 16.1334 51.8776 15.9401L51.9028 15.9476L51.8776 15.9393L52.0676 15.3274H53.4128L53.6444 16.0076C53.7092 16.1913 53.7616 16.3437 53.7616 16.4278C53.7536 16.6036 53.51 16.6159 53.3791 16.6195H53.3407L53.3407 16.7389ZM52.1613 15.056L52.7138 13.3865H52.733H52.745H52.7622L53.3099 15.056H52.1613ZM52.2305 15.0064H53.2403L52.7382 13.4726L52.2305 15.0064Z" fill="#211E1F"/>
<path d="M55.2312 13.0563C54.7983 13.0563 54.7811 13.1596 54.6942 13.577H54.521C54.5438 13.4171 54.573 13.2571 54.5911 13.0905C54.6142 12.9302 54.6247 12.7706 54.6247 12.6048H54.7639C54.8099 12.7766 54.9548 12.7706 55.1096 12.7706H58.0875C58.2424 12.7706 58.3864 12.7651 58.3984 12.5929L58.5364 12.6159C58.5144 12.7706 58.4916 12.925 58.474 13.0798C58.4616 13.2342 58.4616 13.3889 58.4616 13.5429L58.2888 13.6067C58.2779 13.3952 58.2491 13.0563 57.8623 13.0563H56.916V16.1016C56.916 16.5429 57.1185 16.5933 57.3946 16.5933H57.5041V16.7659C57.2793 16.7659 56.876 16.7433 56.5639 16.7433C56.2183 16.7433 55.8137 16.7659 55.5889 16.7659V16.5933H55.6982C56.0162 16.5933 56.1779 16.5651 56.1779 16.1135V13.0563H55.2312Z" fill="#211E1F"/>
<path d="M57.5041 16.7901C57.2777 16.7901 56.8736 16.7671 56.5639 16.7671C56.219 16.7671 55.8149 16.7901 55.5888 16.7901H55.5633V16.7659V16.5687H55.5888H55.6981C56.0161 16.5612 56.1438 16.5572 56.1518 16.1135L56.151 13.0814H55.2311V13.0564V13.031H56.2018V16.1135C56.2018 16.5726 56.0149 16.6179 55.6981 16.6191H55.6133V16.7413C55.8417 16.7389 56.229 16.7183 56.5639 16.7183C56.8651 16.7183 57.2509 16.7389 57.4789 16.7413V16.6191H57.3937C57.1164 16.6179 56.8915 16.5516 56.8908 16.1016V13.031H57.8622C58.2495 13.0326 58.3002 13.3591 58.3111 13.5714L58.4371 13.5258C58.4371 13.3766 58.4375 13.227 58.4487 13.077C58.4647 12.9298 58.4863 12.783 58.5076 12.6369L58.4203 12.6222C58.3939 12.7889 58.2311 12.798 58.0875 12.7956H55.1095H55.0803C54.9443 12.7972 54.797 12.7893 54.7446 12.6285H54.6502C54.6486 12.7873 54.6378 12.9413 54.615 13.0937C54.5998 13.2512 54.5714 13.4028 54.5498 13.5532H54.6734C54.7498 13.1543 54.7999 13.025 55.2311 13.031V13.0564L55.2311 13.0814C54.8035 13.0885 54.8131 13.1603 54.7185 13.5833L54.7142 13.6028H54.6942H54.4917L54.4953 13.5742C54.5193 13.4127 54.5481 13.2532 54.5649 13.0877C54.5885 12.9278 54.5998 12.769 54.5998 12.6047V12.5797H54.6245H54.7821L54.787 12.5976C54.8274 12.742 54.9326 12.7428 55.0802 12.7452L55.1094 12.746H58.0874C58.2466 12.7429 58.363 12.7405 58.373 12.5913L58.3746 12.5639L58.4019 12.5695L58.5655 12.5949L58.5611 12.6199C58.5375 12.7731 58.5155 12.9278 58.4979 13.0814C58.4863 13.2338 58.4863 13.3889 58.4863 13.5429V13.5608L58.4699 13.5671L58.2655 13.6409L58.2643 13.6076C58.2495 13.3925 58.2267 13.0814 57.8622 13.0814H56.9408V16.1016C56.9468 16.5333 57.1192 16.5631 57.3937 16.5687H57.5289V16.5933V16.7901L57.5041 16.7901Z" fill="#211E1F"/>
<path d="M58.7495 16.5932H58.8304C59.0388 16.5932 59.2568 16.5655 59.2568 16.2675V13.269C59.2568 12.9706 59.0388 12.9425 58.8304 12.9425H58.7495V12.7706C58.9748 12.7706 59.3205 12.7932 59.6025 12.7932C59.8922 12.7932 60.2383 12.7706 60.5095 12.7706V12.9425H60.4287C60.2211 12.9425 60.001 12.9706 60.001 13.269V16.2675C60.001 16.5655 60.2211 16.5932 60.4287 16.5932H60.5095V16.7659C60.2323 16.7659 59.8858 16.7433 59.5981 16.7433C59.3149 16.7433 58.9748 16.7659 58.7495 16.7659V16.5932Z" fill="#211E1F"/>
<path d="M60.5095 16.7901C60.2307 16.7901 59.8854 16.7667 59.5978 16.7667C59.3157 16.7667 58.9748 16.7901 58.7495 16.7901H58.7244V16.7659V16.5933V16.5687H58.7495H58.8304C59.0388 16.5655 59.2301 16.5477 59.2309 16.2675V13.2691C59.2301 12.9897 59.0388 12.9706 58.8304 12.9667H58.7244V12.9425V12.7461H58.7495C58.9748 12.7461 59.3213 12.7679 59.6025 12.7679C59.8902 12.7679 60.2363 12.7461 60.5095 12.7461H60.534V12.7707V12.9667H60.5095H60.4287C60.2179 12.9707 60.0286 12.9897 60.0258 13.2691V16.2675C60.0286 16.5477 60.2179 16.5655 60.4287 16.5687H60.534V16.5933V16.7901H60.5095ZM60.4836 16.7401V16.6191H60.4287C60.2219 16.6191 59.9771 16.583 59.9771 16.2675V13.2691C59.9771 12.9528 60.2219 12.9171 60.4287 12.9171H60.4836V12.7957C60.2171 12.7972 59.8838 12.8179 59.6025 12.8179C59.3293 12.8179 58.9984 12.7972 58.7748 12.7957V12.9171H58.8304C59.0356 12.9171 59.2813 12.9528 59.2821 13.2691V16.2675C59.2813 16.583 59.0356 16.6191 58.8304 16.6191H58.7748V16.7401C58.9973 16.7377 59.3237 16.7183 59.5978 16.7183C59.8774 16.7183 60.2116 16.739 60.4836 16.7401Z" fill="#211E1F"/>
<path d="M62.8104 12.6849C64.0403 12.6849 65.0205 13.4413 65.0205 14.6599C65.0205 15.9766 64.0687 16.8516 62.8404 16.8516C61.6162 16.8516 60.6824 16.0274 60.6824 14.7968C60.6824 13.6068 61.6105 12.6849 62.8104 12.6849ZM62.8976 16.5996C64.0171 16.5996 64.212 15.6203 64.212 14.7857C64.212 13.9492 63.7575 12.9365 62.7993 12.9365C61.7894 12.9365 61.4898 13.8294 61.4898 14.5957C61.4898 15.6203 61.9627 16.5996 62.8976 16.5996Z" fill="#211E1F"/>
<path d="M60.6565 14.7968C60.6589 13.5928 61.5984 12.6615 62.8102 12.6599V12.6849V12.7091C61.6244 12.7091 60.7065 13.619 60.7053 14.7968C60.7081 16.0134 61.6288 16.8253 62.8403 16.8257C64.0565 16.8253 64.9948 15.9626 64.9967 14.6587C64.9956 13.4555 64.0301 12.7107 62.8103 12.7091V12.6849V12.6599C64.0497 12.6607 65.0432 13.4246 65.0456 14.6587C65.0444 15.9892 64.0801 16.8734 62.8403 16.8757C61.6063 16.8734 60.6589 16.0408 60.6566 14.7968H60.6565V14.7968ZM61.4648 14.5956C61.4663 13.8258 61.7696 12.9107 62.7994 12.9107C63.7789 12.9131 64.2362 13.9449 64.2377 14.7857C64.2362 15.6202 64.0382 16.6234 62.8979 16.6234V16.5996V16.575C63.995 16.5734 64.185 15.6202 64.1877 14.7857C64.1877 13.956 63.7372 12.9627 62.7994 12.9615C61.8096 12.9627 61.5167 13.8333 61.5148 14.5956C61.5156 15.6151 61.9841 16.5726 62.8979 16.575V16.5996V16.6234C61.94 16.6222 61.4663 15.6262 61.4648 14.5956Z" fill="#211E1F"/>
<path d="M68.9087 15.6377L68.9203 15.6266V13.4805C68.9203 13.0107 68.5907 12.9424 68.4174 12.9424H68.2926V12.7706C68.563 12.7706 68.8283 12.7932 69.0987 12.7932C69.336 12.7932 69.5724 12.7706 69.8093 12.7706V12.9424H69.7221C69.4804 12.9424 69.2088 12.988 69.2088 13.669V16.2738C69.2088 16.4738 69.2144 16.6738 69.2436 16.8512H69.0247L66.0528 13.5659V15.9242C66.0528 16.4222 66.1504 16.5933 66.5946 16.5933H66.6933V16.7659C66.4449 16.7659 66.1973 16.7433 65.9492 16.7433C65.6895 16.7433 65.4235 16.7659 65.1638 16.7659V16.5933H65.245C65.6439 16.5933 65.7636 16.325 65.7636 15.8675V13.4568C65.7636 13.1365 65.4994 12.9425 65.239 12.9425H65.1638V12.7706C65.383 12.7706 65.6083 12.7932 65.8272 12.7932C66.0004 12.7932 66.1673 12.7706 66.3409 12.7706L68.9087 15.6377Z" fill="#211E1F"/>
<path d="M69.244 16.8758L69.0052 16.8675L66.0777 13.6306V15.9243C66.0841 16.4219 66.1605 16.5628 66.5938 16.5679H66.7187V16.5937V16.7901H66.6934C66.4433 16.7901 66.1957 16.7671 65.9492 16.7671C65.6903 16.7671 65.4255 16.7901 65.1634 16.7901H65.1394V16.7655V16.5679H65.1634H65.2451C65.6256 16.5668 65.7348 16.3239 65.7395 15.8675V13.4568C65.7387 13.152 65.487 12.9671 65.239 12.9667H65.1394V12.9425V12.7461H65.1634C65.3847 12.7461 65.6095 12.768 65.8272 12.768C65.9984 12.768 66.1649 12.7461 66.3601 12.7545L68.8951 15.5858V13.4811C68.8935 13.0255 68.5862 12.9707 68.4174 12.9668H68.2658V12.9426V12.7462H68.2918C68.5634 12.7462 68.8295 12.768 69.0979 12.768C69.3347 12.768 69.57 12.7462 69.8093 12.7462H69.8341V12.7707V12.9668H69.8093H69.722C69.4847 12.9735 69.2392 12.9949 69.2343 13.6691V16.2735C69.2343 16.4735 69.2387 16.6731 69.2668 16.8481L69.2715 16.8759H69.244V16.8758ZM69.0249 16.8258H69.2137C69.1885 16.654 69.1841 16.4635 69.1841 16.2734V13.6691C69.1841 12.981 69.475 12.9187 69.7222 12.9167H69.7846V12.7957C69.557 12.7972 69.3289 12.8179 69.0981 12.8179C68.8356 12.8179 68.5775 12.7972 68.3163 12.7957V12.9167H68.4175C68.5964 12.9187 68.9444 12.9969 68.9444 13.481L68.9381 15.6437L68.9272 15.6556L68.9089 15.6738L66.3411 12.7957C66.171 12.7957 66.0026 12.8179 65.8274 12.8179C65.6149 12.8179 65.3984 12.7973 65.1884 12.7957V12.9167H65.2392C65.5101 12.9187 65.7889 13.1215 65.7889 13.4568V15.8675C65.7889 16.3251 65.6601 16.6179 65.2452 16.6195L65.1884 16.6191V16.7401C65.4388 16.739 65.6957 16.7183 65.9494 16.7183C66.1898 16.7183 66.4287 16.739 66.6684 16.7401V16.6195H66.5939C66.1411 16.6191 66.0279 16.4219 66.0279 15.9242V13.5016L69.0249 16.8258ZM68.8952 15.6266V15.6246L68.8904 15.6203L68.8952 15.6266Z" fill="#211E1F"/>
<path d="M70.7365 15.9473C70.6801 16.1413 70.6101 16.2913 70.6101 16.3933C70.6101 16.5655 70.8529 16.5933 71.0422 16.5933H71.1066V16.7659C70.8757 16.7536 70.6389 16.7433 70.4081 16.7433C70.1996 16.7433 69.9927 16.7536 69.7859 16.7659V16.5933H69.8187C70.0447 16.5933 70.236 16.4619 70.3213 16.2211L71.2455 13.5948C71.3198 13.3829 71.4243 13.0968 71.458 12.8846C71.6428 12.8223 71.8732 12.708 71.984 12.6389C72.0004 12.633 72.012 12.627 72.0297 12.627C72.0469 12.627 72.0576 12.627 72.0693 12.6449C72.0868 12.6901 72.1049 12.7421 72.1221 12.7877L73.1831 15.7814C73.2523 15.9814 73.3212 16.1929 73.3972 16.3651C73.4664 16.5254 73.588 16.5933 73.7777 16.5933H73.8129V16.7659C73.5528 16.7536 73.2932 16.7433 73.0159 16.7433C72.7338 16.7433 72.445 16.7536 72.1505 16.7659V16.5933H72.2146C72.3462 16.5933 72.5726 16.5711 72.5726 16.4278C72.5726 16.3536 72.5202 16.1992 72.4558 16.0155L72.2317 15.3516H70.9218L70.7365 15.9473ZM71.5799 13.4115H71.5683L71.031 15.0314H72.1108L71.5799 13.4115Z" fill="#211E1F"/>
<path d="M73.8103 16.7901C73.5506 16.7798 73.2914 16.7671 73.0157 16.7671C72.7344 16.7671 72.4456 16.7798 72.1511 16.7901L72.1255 16.7917V16.7655V16.5687H72.1503H72.2131C72.3475 16.5687 72.5464 16.5377 72.5468 16.4278C72.5479 16.3627 72.496 16.2068 72.4316 16.0234L72.2124 15.3762H70.9389L70.7604 15.9543C70.7028 16.1504 70.6339 16.3008 70.6352 16.3933C70.6352 16.5337 70.8512 16.5687 71.0421 16.5687H71.1301V16.5933V16.7917L71.1045 16.7901C70.8736 16.7798 70.6375 16.7671 70.4079 16.7671C70.2011 16.7671 69.9938 16.7798 69.7857 16.7901L69.7605 16.7917V16.7655V16.5687H69.7857H69.8185C70.0338 16.5678 70.2138 16.4453 70.2979 16.2131L71.2213 13.5865C71.2949 13.3742 71.3989 13.0889 71.4501 12.8615C71.6314 12.7992 71.863 12.6849 71.9751 12.6151C71.9902 12.6099 72.0059 12.6032 72.0294 12.6032C72.0447 12.6016 72.0742 12.6051 72.0926 12.6365C72.1098 12.6814 72.1267 12.7333 72.1459 12.7797L73.2069 15.773C73.2758 15.9738 73.345 16.1853 73.4198 16.3556C73.4873 16.5072 73.5926 16.5671 73.7766 16.5687H73.8367V16.5933V16.7917L73.8103 16.7901ZM72.1751 16.7397C72.4604 16.7289 72.7413 16.7178 73.0157 16.7178C73.2842 16.7178 73.5359 16.7289 73.7871 16.7389L73.7863 16.6194H73.7767C73.5814 16.6198 73.445 16.5436 73.3734 16.375C73.2974 16.2012 73.2286 15.9889 73.1597 15.7892L72.0978 12.7956C72.0806 12.75 72.0631 12.698 72.0491 12.6591C72.0442 12.652 72.0447 12.652 72.0402 12.652H72.0294C72.0175 12.652 72.011 12.6559 71.997 12.6599C71.8846 12.7301 71.6533 12.8444 71.4825 12.8885C71.4468 13.1051 71.3421 13.3905 71.2677 13.6028L70.3439 16.2297C70.2562 16.4782 70.0546 16.6198 69.8185 16.6194H69.8101V16.7389C70.0086 16.7289 70.207 16.7178 70.4078 16.7178C70.6315 16.7178 70.8591 16.7289 71.0812 16.7389V16.6194H71.042C70.8544 16.617 70.5911 16.5968 70.5843 16.3932C70.5855 16.2797 70.6571 16.1341 70.7127 15.9401L70.7363 15.9476L70.7127 15.9392L70.9028 15.3273H72.2483L72.4795 16.0075C72.5431 16.1916 72.5956 16.3436 72.5956 16.4278C72.5871 16.6036 72.3451 16.6158 72.213 16.6194H72.1751V16.7397H72.1751ZM70.9964 15.0556L71.5498 13.3865H71.5673H71.5798H71.5978L72.1431 15.0556H70.9964ZM71.0656 15.0063H72.0747L71.573 13.4734L71.0656 15.0063Z" fill="#211E1F"/>
<path d="M75.2665 16.2048C75.2665 16.4338 75.4266 16.502 75.6114 16.5254C75.8479 16.5429 76.1076 16.5429 76.3741 16.5139C76.6157 16.485 76.8238 16.3477 76.9269 16.2048C77.019 16.0786 77.071 15.9182 77.1058 15.7925H77.273C77.2098 16.1186 77.129 16.4401 77.0594 16.7659C76.5529 16.7659 76.044 16.7432 75.537 16.7432C75.0285 16.7432 74.5216 16.7659 74.0139 16.7659V16.5932H74.0931C74.302 16.5932 74.5276 16.5655 74.5276 16.2103V13.269C74.5276 12.9706 74.3019 12.9425 74.0931 12.9425H74.0139V12.7706C74.3187 12.7706 74.6192 12.7932 74.9245 12.7932C75.2198 12.7932 75.5079 12.7706 75.8023 12.7706V12.9425H75.657C75.4386 12.9425 75.2665 12.9488 75.2665 13.2512V16.2048Z" fill="#211E1F"/>
<path d="M77.0594 16.7901C76.5509 16.7901 76.0432 16.7671 75.5371 16.7671C75.0289 16.7671 74.5212 16.7901 74.0127 16.7901H73.9883V16.7655V16.5687H74.0127H74.0931C74.3024 16.5639 74.5 16.5496 74.5024 16.2103V13.2679C74.5 12.9897 74.3036 12.9707 74.0931 12.9667H73.9883V12.9425V12.7461H74.0127C74.3196 12.7461 74.6201 12.7679 74.9249 12.7679C75.2178 12.7679 75.5059 12.7461 75.8023 12.7461H75.826V12.7707V12.9667H75.8023H75.6575C75.4339 12.973 75.2946 12.9627 75.2902 13.2513V16.2048C75.2918 16.4179 75.4327 16.4755 75.6127 16.5005C75.7147 16.5076 75.8216 16.512 75.9328 16.512C76.074 16.512 76.2208 16.5052 76.3697 16.4893C76.6049 16.462 76.8074 16.3274 76.9066 16.1909C76.9954 16.0687 77.0467 15.9116 77.081 15.7866L77.0863 15.7676H77.1055H77.3035L77.2983 15.7977C77.2331 16.1251 77.1539 16.4449 77.0839 16.7707L77.0791 16.7902H77.0595H77.0594V16.7901ZM77.0386 16.7401C77.1054 16.4298 77.1811 16.1262 77.2431 15.8166H77.1246C77.0886 15.9413 77.0374 16.0948 76.9466 16.2198C76.8389 16.3682 76.6253 16.5079 76.3752 16.5385C76.224 16.554 76.0744 16.5619 75.9328 16.5619C75.8211 16.5619 75.7127 16.5567 75.6083 16.5495C75.4207 16.5289 75.2386 16.4495 75.2394 16.2047V13.2512C75.2394 12.9333 75.4422 12.917 75.6575 12.917H75.7767V12.7956C75.4923 12.7972 75.2122 12.8182 74.9249 12.8182C74.626 12.8182 74.3339 12.7972 74.0379 12.7956V12.917H74.0931C74.2992 12.917 74.5512 12.9528 74.5512 13.2678V16.2103C74.5512 16.5805 74.3003 16.619 74.0931 16.619H74.0379V16.7401C74.5368 16.7397 75.0357 16.7182 75.537 16.7182C76.0384 16.7182 76.5394 16.7397 77.0386 16.7401Z" fill="#211E1F"/>
<path d="M77.203 12.6079C77.5506 12.6079 77.8103 12.873 77.8103 13.2127C77.8103 13.5508 77.5507 13.8135 77.203 13.8135C76.8553 13.8135 76.5952 13.5508 76.5952 13.2127C76.5952 12.873 76.8552 12.6079 77.203 12.6079ZM77.203 13.7012C77.4746 13.7012 77.6835 13.471 77.6835 13.2127C77.6835 12.9528 77.4778 12.7206 77.203 12.7206C76.9297 12.7206 76.7208 12.9528 76.7208 13.2127C76.7208 13.471 76.9297 13.7012 77.203 13.7012ZM76.9005 13.5301V13.5004C76.9753 13.4901 76.9889 13.4924 76.9889 13.4464V13.0004C76.9889 12.9377 76.9821 12.9163 76.9033 12.9194V12.8889H77.2142C77.3214 12.8889 77.4194 12.9393 77.4194 13.0488C77.4194 13.1385 77.3594 13.2047 77.2757 13.2305L77.3754 13.3686C77.4222 13.4313 77.4746 13.4901 77.5094 13.5106V13.5301H77.391C77.3342 13.5301 77.2846 13.4114 77.1725 13.2523H77.1053V13.4527C77.1053 13.4924 77.1193 13.49 77.1942 13.5003V13.5301L76.9005 13.5301ZM77.1053 13.2127H77.177C77.2553 13.2127 77.2921 13.1535 77.2921 13.0587C77.2921 12.9627 77.2353 12.9289 77.1729 12.9289H77.1053V13.2127Z" fill="#211E1F"/>
</g>
<defs>
<clipPath id="clip0_48_6923">
<rect width="77.8182" height="20" fill="white" transform="translate(-0.0078125)"/>
</clipPath>
</defs>
</svg>
