<svg width="34" height="26" viewBox="0 0 34 26" fill="none" xmlns="http://www.w3.org/2000/svg">
<path fill-rule="evenodd" clip-rule="evenodd" d="M6.10423 23.3385C6.00833 23.2423 5.89456 23.1676 5.7628 23.1143C5.63104 23.061 5.48685 23.0342 5.33009 23.0342C5.24715 23.0342 5.16103 23.0415 5.0716 23.0557C4.98231 23.0701 4.89474 23.0952 4.80902 23.1315C4.72329 23.1676 4.64181 23.2176 4.56429 23.2814C4.4869 23.3452 4.4197 23.4257 4.36255 23.5228C4.27034 23.3704 4.14547 23.2509 3.98791 23.1643C3.83036 23.0776 3.65018 23.0342 3.44739 23.0342C3.37926 23.0342 3.30875 23.0405 3.23586 23.0529C3.16311 23.0653 3.09074 23.0868 3.01891 23.1172C2.94695 23.1477 2.87829 23.189 2.81294 23.2414C2.74746 23.2938 2.68806 23.3599 2.63462 23.44V23.1057H2.05957V25.8424H2.64004V24.3255C2.64004 24.2093 2.65856 24.106 2.69547 24.0155C2.73225 23.9252 2.78159 23.8494 2.84337 23.7884C2.90501 23.7274 2.97738 23.6814 3.06032 23.6499C3.14326 23.6184 3.23176 23.6028 3.32582 23.6028C3.52107 23.6028 3.67281 23.6647 3.78062 23.7884C3.88843 23.9122 3.94227 24.0894 3.94227 24.3198V25.8424H4.52288V24.3255C4.52288 24.2093 4.54127 24.106 4.57818 24.0155C4.61508 23.9252 4.66429 23.8494 4.72607 23.7884C4.78785 23.7274 4.86021 23.6814 4.94315 23.6499C5.0261 23.6184 5.1146 23.6028 5.20852 23.6028C5.40391 23.6028 5.55551 23.6647 5.66332 23.7884C5.77114 23.9122 5.82498 24.0894 5.82498 24.3198V25.8424H6.40558V24.1227C6.40558 23.9628 6.37939 23.8161 6.32687 23.6828C6.27435 23.5495 6.20014 23.4348 6.10423 23.3385Z" fill="#1D1D1B"/>
<path fill-rule="evenodd" clip-rule="evenodd" d="M9.14281 24.8225C9.10286 24.9293 9.04664 25.0216 8.97428 25.0997C8.90192 25.1778 8.81527 25.2391 8.71434 25.2839C8.6134 25.3286 8.50096 25.351 8.37727 25.351C8.24776 25.351 8.13201 25.3277 8.03015 25.2812C7.92829 25.2345 7.84204 25.1716 7.77166 25.0925C7.70128 25.0135 7.64691 24.9207 7.60882 24.8141C7.57072 24.7074 7.55167 24.5941 7.55167 24.4741C7.55167 24.3541 7.57072 24.2409 7.60882 24.1341C7.64691 24.0275 7.70128 23.9346 7.77166 23.8556C7.84204 23.7767 7.92829 23.7137 8.03015 23.6671C8.13201 23.6204 8.24776 23.597 8.37727 23.597C8.50096 23.597 8.6134 23.6195 8.71434 23.6642C8.81527 23.7091 8.90192 23.7704 8.97428 23.8485C9.04664 23.9267 9.10286 24.019 9.14281 24.1255C9.18289 24.2323 9.20287 24.3484 9.20287 24.4741C9.20287 24.5997 9.18289 24.7159 9.14281 24.8225ZM9.1656 23.4371C9.07036 23.3152 8.95236 23.2176 8.81134 23.1443C8.67045 23.071 8.50192 23.0342 8.30574 23.0342C8.1134 23.0342 7.93441 23.0701 7.76879 23.1415C7.60303 23.2128 7.45831 23.3124 7.33449 23.44C7.2108 23.5676 7.11357 23.7195 7.04306 23.8956C6.97269 24.0718 6.9375 24.2645 6.9375 24.474C6.9375 24.6836 6.97269 24.8763 7.04306 25.0524C7.11357 25.2286 7.2108 25.3806 7.33449 25.5081C7.45831 25.6357 7.60303 25.7351 7.76879 25.8066C7.93441 25.878 8.1134 25.9137 8.30574 25.9137C8.50192 25.9137 8.67045 25.8776 8.81134 25.8052C8.95236 25.7329 9.07036 25.6357 9.1656 25.514V25.8424H9.76261V23.1057H9.1656V23.4371Z" fill="#1D1D1B"/>
<path fill-rule="evenodd" clip-rule="evenodd" d="M12.507 24.4698C12.3394 24.3393 12.1061 24.2522 11.8071 24.2082L11.5244 24.1655C11.4615 24.156 11.4025 24.1451 11.3472 24.1326C11.292 24.1203 11.2444 24.1036 11.2044 24.0826C11.1645 24.0617 11.1325 24.0351 11.1088 24.0027C11.085 23.9704 11.0731 23.9303 11.0731 23.8828C11.0731 23.7856 11.1182 23.707 11.2088 23.647C11.2991 23.587 11.4263 23.5571 11.59 23.5571C11.6758 23.5571 11.76 23.5647 11.8428 23.5799C11.9256 23.5952 12.0042 23.6141 12.0786 23.637C12.1528 23.6599 12.2204 23.685 12.2814 23.7127C12.3422 23.7403 12.3938 23.7667 12.4356 23.7913L12.6926 23.3258C12.5499 23.2342 12.3832 23.1633 12.1929 23.1128C12.0024 23.0624 11.7996 23.0371 11.5843 23.0371C11.4091 23.0371 11.252 23.0576 11.113 23.0986C10.974 23.1395 10.8554 23.1976 10.7573 23.2728C10.6593 23.3481 10.584 23.4399 10.5316 23.5484C10.4792 23.657 10.4532 23.7788 10.4532 23.9142C10.4532 24.1351 10.5316 24.3135 10.6888 24.4498C10.8459 24.5859 11.0768 24.675 11.3816 24.7169L11.6672 24.7539C11.8309 24.7768 11.9509 24.8136 12.0271 24.8639C12.1033 24.9144 12.1414 24.9787 12.1414 25.0567C12.1414 25.1596 12.089 25.241 11.9842 25.3009C11.8795 25.3609 11.7243 25.391 11.5186 25.391C11.4063 25.391 11.3059 25.3833 11.2173 25.3681C11.1288 25.3529 11.0478 25.3324 10.9745 25.3068C10.9011 25.2811 10.8355 25.2515 10.7774 25.2181C10.7192 25.1848 10.6655 25.1492 10.616 25.1111L10.3389 25.5594C10.4378 25.6338 10.5417 25.6938 10.6503 25.7396C10.7587 25.7851 10.8654 25.8208 10.9701 25.8466C11.0749 25.8724 11.1739 25.8893 11.2673 25.8981C11.3605 25.9065 11.4424 25.9109 11.5129 25.9109C11.7091 25.9109 11.8848 25.8891 12.0399 25.8452C12.1952 25.8014 12.3255 25.74 12.4314 25.6609C12.5371 25.5819 12.6179 25.4876 12.6741 25.3781C12.7302 25.2687 12.7584 25.1481 12.7584 25.0168C12.7584 24.7825 12.6747 24.6001 12.507 24.4698Z" fill="#1D1D1B"/>
<path fill-rule="evenodd" clip-rule="evenodd" d="M16.4272 24.2398C16.4424 24.1407 16.4691 24.0497 16.5072 23.9669C16.5453 23.8842 16.5944 23.8127 16.6543 23.7527C16.7144 23.6927 16.7857 23.6466 16.8685 23.6142C16.9514 23.5818 17.0461 23.5655 17.1527 23.5655C17.3431 23.5655 17.4984 23.6247 17.6184 23.7427C17.7384 23.8608 17.8144 24.0266 17.8469 24.2398H16.4272ZM18.0971 23.4327C17.9837 23.3062 17.8476 23.2081 17.6886 23.1385C17.5296 23.069 17.3548 23.0343 17.1644 23.0343C16.9624 23.0343 16.7783 23.069 16.6117 23.1385C16.4449 23.2081 16.3017 23.3062 16.1817 23.4327C16.0617 23.5593 15.9684 23.7113 15.9018 23.8885C15.8351 24.0656 15.8018 24.2607 15.8018 24.4741C15.8018 24.6911 15.836 24.8882 15.9047 25.0653C15.9732 25.2424 16.0692 25.3939 16.1931 25.5196C16.317 25.6452 16.4645 25.7423 16.636 25.8109C16.8074 25.8795 16.9959 25.9137 17.2016 25.9137C17.409 25.9137 17.6067 25.8852 17.7943 25.8281C17.9817 25.7709 18.1595 25.6709 18.327 25.528L18.03 25.1025C17.9157 25.1939 17.7895 25.2649 17.6514 25.3153C17.5133 25.3659 17.3757 25.391 17.2387 25.391C17.1414 25.391 17.0482 25.3778 16.9587 25.3509C16.8692 25.3243 16.7884 25.283 16.7159 25.2267C16.6435 25.1706 16.5817 25.0986 16.5301 25.0111C16.4788 24.9235 16.4435 24.8178 16.4246 24.694H18.447C18.4508 24.6597 18.4536 24.6235 18.4556 24.5854C18.4574 24.5473 18.4585 24.5093 18.4585 24.4712C18.4585 24.258 18.4265 24.0631 18.3627 23.887C18.2988 23.7108 18.2104 23.5593 18.0971 23.4327Z" fill="#1D1D1B"/>
<path fill-rule="evenodd" clip-rule="evenodd" d="M26.0062 24.8225C25.9661 24.9293 25.9099 25.0216 25.8377 25.0997C25.7652 25.1778 25.6785 25.2391 25.5776 25.2839C25.4766 25.3286 25.3643 25.351 25.2405 25.351C25.111 25.351 24.9953 25.3277 24.8935 25.2812C24.7915 25.2345 24.7054 25.1716 24.6349 25.0925C24.5645 25.0135 24.5102 24.9207 24.4721 24.8141C24.434 24.7074 24.415 24.5941 24.415 24.4741C24.415 24.3541 24.434 24.2409 24.4721 24.1341C24.5102 24.0275 24.5645 23.9346 24.6349 23.8556C24.7054 23.7767 24.7915 23.7137 24.8935 23.6671C24.9953 23.6204 25.111 23.597 25.2405 23.597C25.3643 23.597 25.4766 23.6195 25.5776 23.6642C25.6785 23.7091 25.7652 23.7704 25.8377 23.8485C25.9099 23.9267 25.9661 24.019 26.0062 24.1255C26.0461 24.2323 26.0661 24.3484 26.0661 24.4741C26.0661 24.5997 26.0461 24.7159 26.0062 24.8225ZM26.0289 23.4371C25.9336 23.3152 25.8156 23.2176 25.6746 23.1443C25.5339 23.071 25.3652 23.0342 25.1692 23.0342C24.9767 23.0342 24.7977 23.0701 24.6321 23.1415C24.4663 23.2128 24.3217 23.3124 24.1978 23.44C24.0741 23.5676 23.9769 23.7195 23.9065 23.8956C23.836 24.0718 23.8008 24.2645 23.8008 24.474C23.8008 24.6836 23.836 24.8763 23.9065 25.0524C23.9769 25.2286 24.0741 25.3806 24.1978 25.5081C24.3217 25.6357 24.4663 25.7351 24.6321 25.8066C24.7977 25.878 24.9767 25.9137 25.1692 25.9137C25.3652 25.9137 25.5339 25.8776 25.6746 25.8052C25.8156 25.7329 25.9336 25.6357 26.0289 25.514V25.8424H26.626V23.1057H26.0289V23.4371Z" fill="#1D1D1B"/>
<path fill-rule="evenodd" clip-rule="evenodd" d="M15.067 25.2967C14.9709 25.3328 14.8762 25.351 14.7828 25.351C14.7218 25.351 14.6652 25.3416 14.6128 25.3224C14.5604 25.3035 14.5147 25.2734 14.4757 25.2326C14.4367 25.1915 14.4056 25.1388 14.3829 25.0739C14.36 25.0091 14.3486 24.9311 14.3486 24.8397V23.6484H15.3074V23.1058H14.3486V22.2774H13.7487V23.1058H13.2031V23.6484H13.7487V24.8512C13.7487 25.2148 13.8348 25.4828 14.0072 25.6552C14.1795 25.8277 14.421 25.9137 14.7313 25.9137C14.9046 25.9137 15.0603 25.8871 15.1984 25.8338C15.2897 25.7986 15.3743 25.7583 15.4536 25.7138L15.2495 25.2139C15.1917 25.2447 15.1311 25.2725 15.067 25.2967Z" fill="#1D1D1B"/>
<path fill-rule="evenodd" clip-rule="evenodd" d="M20.4573 23.0342C20.2897 23.0342 20.1384 23.0647 20.003 23.1257C19.8679 23.1866 19.7546 23.3333 19.6632 23.4648V23.1057H19.1211V25.8424H19.6689V24.3369C19.6689 24.2209 19.6852 24.117 19.7174 24.0255C19.7499 23.9342 19.7946 23.8571 19.8518 23.7941C19.9089 23.7314 19.9774 23.6836 20.0576 23.6514C20.1375 23.6189 20.2249 23.6028 20.3203 23.6028C20.3926 23.6028 20.4707 23.6113 20.5544 23.6285C20.5973 23.6372 20.6371 23.6481 20.6745 23.6606L20.851 23.0894C20.8031 23.0743 20.7546 23.0614 20.7044 23.0529C20.631 23.0405 20.5487 23.0342 20.4573 23.0342Z" fill="#1D1D1B"/>
<path fill-rule="evenodd" clip-rule="evenodd" d="M28.7561 23.0342C28.5885 23.0342 28.4372 23.0647 28.3019 23.1257C28.1667 23.1866 28.0534 23.3333 27.962 23.4648V23.1057H27.4199V25.8424H27.9677V24.3369C27.9677 24.2209 27.9839 24.117 28.0163 24.0255C28.0485 23.9342 28.0934 23.8571 28.1505 23.7941C28.2077 23.7314 28.2762 23.6836 28.3562 23.6514C28.4361 23.6189 28.5237 23.6028 28.619 23.6028C28.6915 23.6028 28.7695 23.6113 28.8532 23.6285C28.896 23.6372 28.9358 23.6481 28.9732 23.6606L29.1498 23.0894C29.1018 23.0743 29.0533 23.0614 29.0033 23.0529C28.9298 23.0405 28.8474 23.0342 28.7561 23.0342Z" fill="#1D1D1B"/>
<path fill-rule="evenodd" clip-rule="evenodd" d="M31.522 24.8225C31.4819 24.9292 31.4256 25.0216 31.3534 25.0996C31.2811 25.1778 31.1943 25.2391 31.0935 25.2839C30.9924 25.3286 30.8801 25.351 30.7564 25.351C30.6268 25.351 30.5112 25.3277 30.4093 25.2811C30.3073 25.2344 30.2212 25.1716 30.1507 25.0925C30.0803 25.0135 30.0259 24.9206 29.988 24.814C29.9497 24.7074 29.9308 24.594 29.9308 24.474C29.9308 24.3541 29.9497 24.2408 29.988 24.1341C30.0259 24.0274 30.0803 23.9346 30.1507 23.8556C30.2212 23.7766 30.3073 23.7137 30.4093 23.6671C30.5112 23.6204 30.6268 23.597 30.7564 23.597C30.8801 23.597 30.9924 23.6195 31.0935 23.6642C31.1943 23.709 31.2811 23.7704 31.3534 23.8485C31.4256 23.9266 31.4819 24.019 31.522 24.1255C31.5619 24.2322 31.5819 24.3484 31.5819 24.474C31.5819 24.5997 31.5619 24.7159 31.522 24.8225ZM31.5445 21.9934V23.4371C31.4493 23.3152 31.3313 23.2176 31.1904 23.1443C31.0495 23.071 30.8808 23.0342 30.6848 23.0342C30.4924 23.0342 30.3133 23.0701 30.1477 23.1415C29.9819 23.2128 29.8374 23.3124 29.7135 23.44C29.5897 23.5676 29.4925 23.7195 29.4221 23.8956C29.3516 24.0718 29.3164 24.2645 29.3164 24.474C29.3164 24.6836 29.3516 24.8763 29.4221 25.0524C29.4925 25.2286 29.5897 25.3806 29.7135 25.5081C29.8374 25.6357 29.9819 25.7351 30.1477 25.8066C30.3133 25.878 30.4924 25.9137 30.6848 25.9137C30.8808 25.9137 31.0495 25.8776 31.1904 25.8052C31.3313 25.7329 31.4493 25.6357 31.5445 25.514V25.8424H32.1417V21.9934H31.5445Z" fill="#1D1D1B"/>
<path fill-rule="evenodd" clip-rule="evenodd" d="M21.8864 23.8413C21.9624 23.7642 22.0529 23.7043 22.1577 23.6614C22.2625 23.6184 22.3757 23.597 22.4977 23.597C22.6317 23.597 22.7563 23.6184 22.8715 23.6614C22.983 23.7027 23.0795 23.7606 23.1613 23.8339L23.4488 23.356C23.341 23.27 23.2197 23.1993 23.0846 23.1443C22.9046 23.071 22.7089 23.0342 22.4977 23.0342C22.2861 23.0342 22.0905 23.071 21.9106 23.1443C21.7305 23.2176 21.5754 23.3185 21.4449 23.4472C21.3146 23.5757 21.2121 23.7276 21.1379 23.9027C21.0635 24.078 21.0264 24.2685 21.0264 24.474C21.0264 24.6798 21.0635 24.8701 21.1379 25.0454C21.2121 25.2207 21.3146 25.3724 21.4449 25.501C21.5754 25.6296 21.7305 25.7305 21.9106 25.8038C22.0905 25.8771 22.2861 25.9137 22.4977 25.9137C22.7089 25.9137 22.9046 25.8771 23.0846 25.8038C23.2197 25.7488 23.341 25.6783 23.4488 25.5921L23.1613 25.1141C23.0795 25.1876 22.983 25.2453 22.8715 25.2868C22.7563 25.3295 22.6317 25.351 22.4977 25.351C22.3757 25.351 22.2625 25.3295 22.1577 25.2868C22.0529 25.244 21.9624 25.1839 21.8864 25.1066C21.8102 25.0297 21.7501 24.9373 21.7063 24.8298C21.6625 24.7221 21.6407 24.6036 21.6407 24.474C21.6407 24.3445 21.6625 24.226 21.7063 24.1185C21.7501 24.0108 21.8102 23.9184 21.8864 23.8413Z" fill="#1D1D1B"/>
<mask id="mask0_105_657" style="mask-type:luminance" maskUnits="userSpaceOnUse" x="33" y="25" width="1" height="1">
<path fill-rule="evenodd" clip-rule="evenodd" d="M33.1113 25.4413H33.686V26H33.1113V25.4413Z" fill="white"/>
</mask>
<g mask="url(#mask0_105_657)">
<path fill-rule="evenodd" clip-rule="evenodd" d="M33.3623 25.657V25.7024H33.4145C33.4254 25.7024 33.4336 25.7007 33.4394 25.6975C33.4452 25.694 33.448 25.6882 33.448 25.68C33.448 25.6721 33.4452 25.6663 33.4394 25.6626C33.4336 25.659 33.4254 25.657 33.4145 25.657H33.3623ZM33.4155 25.5966C33.4495 25.5966 33.4753 25.6043 33.4929 25.6194C33.5105 25.6345 33.5192 25.6546 33.5192 25.68C33.5192 25.6998 33.513 25.7162 33.5005 25.7293C33.4878 25.7424 33.4695 25.751 33.4454 25.7551L33.5224 25.844H33.4392L33.3703 25.7576H33.3621V25.844H33.2926V25.5966H33.4155ZM33.3995 25.9223C33.4273 25.9223 33.4534 25.9171 33.4778 25.9065C33.5023 25.8959 33.5236 25.8815 33.5415 25.8633C33.5596 25.8451 33.5737 25.8238 33.5842 25.7993C33.5945 25.7748 33.5997 25.7485 33.5997 25.7203C33.5997 25.6927 33.5945 25.6664 33.5842 25.6418C33.5737 25.617 33.5596 25.5957 33.5415 25.5777C33.5236 25.5598 33.5023 25.5455 33.4778 25.5349C33.4534 25.5243 33.4273 25.519 33.3995 25.519C33.371 25.519 33.3444 25.5243 33.3198 25.5349C33.295 25.5455 33.2736 25.5598 33.2553 25.5777C33.2372 25.5957 33.2228 25.617 33.2125 25.6418C33.2022 25.6664 33.197 25.6927 33.197 25.7203C33.197 25.7485 33.2022 25.7748 33.2125 25.7993C33.2228 25.8238 33.2372 25.8451 33.2553 25.8633C33.2736 25.8815 33.295 25.8959 33.3198 25.9065C33.3444 25.9171 33.371 25.9223 33.3995 25.9223ZM33.3996 25.4413C33.4394 25.4413 33.4766 25.4488 33.5115 25.4634C33.5463 25.4781 33.5766 25.4981 33.6024 25.5234C33.6284 25.5488 33.6488 25.5781 33.6636 25.6119C33.6787 25.6457 33.686 25.6817 33.686 25.7203C33.686 25.7586 33.6787 25.7946 33.6636 25.8285C33.6488 25.8625 33.6284 25.8922 33.6024 25.9177C33.5766 25.9431 33.5463 25.9632 33.5115 25.9779C33.4766 25.9926 33.4394 26 33.3996 26C33.3591 26 33.321 25.9926 33.2859 25.9779C33.2506 25.9632 33.2202 25.9431 33.1941 25.9177C33.1683 25.8922 33.1481 25.8625 33.1334 25.8285C33.1186 25.7946 33.1113 25.7586 33.1113 25.7203C33.1113 25.6817 33.1186 25.6457 33.1334 25.6119C33.1481 25.5781 33.1683 25.5488 33.1941 25.5234C33.2202 25.4981 33.2506 25.4781 33.2859 25.4634C33.321 25.4488 33.3591 25.4413 33.3996 25.4413Z" fill="#1D1D1B"/>
</g>
<mask id="mask1_105_657" style="mask-type:luminance" maskUnits="userSpaceOnUse" x="0" y="0" width="18" height="21">
<path fill-rule="evenodd" clip-rule="evenodd" d="M0.371094 0H17.0819V20.6273H0.371094V0Z" fill="white"/>
</mask>
<g mask="url(#mask1_105_657)">
<path fill-rule="evenodd" clip-rule="evenodd" d="M13.1657 10.3134C13.1657 7.03489 14.6973 4.11572 17.0819 2.22667C15.3236 0.833823 13.1022 -0.000244141 10.6847 -0.000244141C4.98869 -0.000244141 0.371094 4.61735 0.371094 10.3134C0.371094 16.0095 4.98869 20.6271 10.6847 20.6271C13.1022 20.6271 15.3236 19.793 17.0819 18.4C14.6973 16.511 13.1657 13.5919 13.1657 10.3134Z" fill="#E30E17"/>
</g>
<path fill-rule="evenodd" clip-rule="evenodd" d="M13.166 10.3135C13.166 13.5921 14.6976 16.5112 17.0822 18.4002C19.467 16.5112 20.9986 13.5921 20.9986 10.3135C20.9986 7.03509 19.467 4.11592 17.0822 2.22687C14.6976 4.11592 13.166 7.03509 13.166 10.3135Z" fill="#EA600A"/>
<path fill-rule="evenodd" clip-rule="evenodd" d="M33.7403 15.8922V15.6251L33.6538 15.8556H33.558L33.4715 15.6258V15.8922H33.3812V15.5074H33.5106L33.6061 15.7539L33.7011 15.5074H33.8305V15.8922H33.7403ZM33.0938 15.8922V15.5903H32.9717V15.5074H33.3061V15.5903H33.184V15.8922H33.0938Z" fill="#F59F00"/>
<mask id="mask2_105_657" style="mask-type:luminance" maskUnits="userSpaceOnUse" x="17" y="0" width="17" height="21">
<path fill-rule="evenodd" clip-rule="evenodd" d="M17.082 0H33.793V20.6273H17.082V0Z" fill="white"/>
</mask>
<g mask="url(#mask2_105_657)">
<path fill-rule="evenodd" clip-rule="evenodd" d="M23.4794 -6.10352e-05C21.0619 -6.10352e-05 18.8405 0.834006 17.082 2.22685C19.4668 4.11591 20.9984 7.03507 20.9984 10.3135C20.9984 13.5921 19.4668 16.511 17.082 18.4002C18.8405 19.7932 21.0619 20.6273 23.4794 20.6273C29.1754 20.6273 33.793 16.0095 33.793 10.3135C33.793 4.61754 29.1754 -6.10352e-05 23.4794 -6.10352e-05Z" fill="#F59F00"/>
</g>
</svg>
