<svg xmlns="http://www.w3.org/2000/svg" xmlns:xlink="http://www.w3.org/1999/xlink" width="40" height="40"><g stroke="none" stroke-width="1" fill="none" fill-rule="evenodd">\a         <g transform="matrix(-0.362857,-1.34051,-1.34051,0.362857,22.7948,17.7086)">\a             <ellipse cx="-4.387" cy="-1.188" rx="4.545" ry="4.545" style="fill:none;stroke:#ef9803;stroke-width:1.25;"/>\a         </g>\a         <g transform="matrix(1.38875,0,0,1.38875,26.8132,11.2912)">\a             <path stroke-width="1.5" stroke-linecap="round" stroke-linejoin="round" d="M0,14.716L0,16.352L-14.987,16.352L-14.987,-1.636L0,-1.636L0,2.172" style="fill:none;fill-rule:nonzero;stroke:#333132;"/>\a         </g>\a         <g transform="matrix(1.38875,0,0,1.38875,21.2201,2)">\a             <path stroke-width="1.5" stroke-linecap="round" stroke-linejoin="round" d="M0,7.023L0,3.689C0,1.753 -1.475,0 -3.411,0L-3.472,0C-5.408,0 -7,1.753 -7,3.689L-7,7.023" style="fill:none;fill-rule:nonzero;stroke:#333132;"/>\a         </g>\a         <g transform="matrix(1.38875,0,0,1.38875,24.7531,20.587)">\a             <path stroke-width="1.25" stroke-linecap="round" stroke-linejoin="round" d="M0,3.681C0.445,3.891 1.062,3.97 1.459,3.858C2.095,3.68 2.483,3.084 2.327,2.528C2.171,1.972 1.543,1.852 0.893,1.845C0.215,1.825 -0.386,1.718 -0.542,1.162C-0.698,0.606 -0.31,0.01 0.326,-0.169C0.755,-0.289 1.186,-0.19 1.47,0.058" style="fill:none;fill-rule:nonzero;stroke:#ef9803;"/>\a         </g>\a         <g transform="matrix(0.374449,1.33732,1.33732,-0.374449,25.4377,19.7646)">\a             <path stroke-width="1.25" stroke-linecap="round" stroke-linejoin="round" d="M-0.209,-0.275L0.363,-0.275" style="fill:none;fill-rule:nonzero;stroke:#ef9803;"/>\a         </g> \a         <g transform="matrix(0.374449,1.33732,1.33732,-0.374449,27.2252,26.1212)">\a             <path stroke-width="1.25" stroke-linecap="round" stroke-linejoin="round" d="M-0.209,-0.275L0.363,-0.275" style="fill:none;fill-rule:nonzero;stroke:#ef9803;"/>\a         </g>\a     </g></svg>